<svg xmlns="http://www.w3.org/2000/svg" xmlns:xlink="http://www.w3.org/1999/xlink" width="390" height="160" viewBox="0 0 351 144">
  <defs>
    <linearGradient x2="1" gradientUnits="userSpaceOnUse" gradientTransform="matrix(0 -13.02 13.02 0 16.59 21.76)" id="a">
      <stop style="stop-color:#000;stop-opacity:1" offset="0"/>
      <stop style="stop-color:#000;stop-opacity:1" offset=".536"/>
      <stop style="stop-color:#000;stop-opacity:0" offset=".617"/>
      <stop style="stop-color:#000;stop-opacity:0" offset="1"/>
    </linearGradient>
    <linearGradient x2="1" gradientUnits="userSpaceOnUse" gradientTransform="matrix(0 -13.02 13.02 0 16.59 21.76)" id="b">
      <stop style="stop-color:#fff;stop-opacity:1" offset="0"/>
      <stop style="stop-color:#fff;stop-opacity:1" offset=".536"/>
      <stop style="stop-color:#fff;stop-opacity:0" offset=".609"/>
      <stop style="stop-color:#fff;stop-opacity:0" offset="1"/>
    </linearGradient>
    <linearGradient xlink:href="#a" id="c" gradientUnits="userSpaceOnUse" gradientTransform="translate(4 4.4)" x1="79.61" y1="14.2" x2="79.15" y2="126.2"/>
    <linearGradient xlink:href="#b" id="e" gradientUnits="userSpaceOnUse" gradientTransform="translate(4 4.4)" x1="79.61" y1="14.2" x2="79.15" y2="126.2"/>
    <filter style="color-interpolation-filters:sRGB" id="d" x="0" y="0" width="11" height="1">
      <feGaussianBlur stdDeviation="2.593"/>
    </filter>
  </defs>
  <path style="fill:url(#c);filter:url(#filter1258)" d="M92 129.1s0 3.3 3 3.3c2 1.8 3 1.8 3 1.8 21-10.3 19-59.2 36-86.3l-3-3.5c-17 27.1-16 62.8-39 84.7m39-111.8h-5c3 1.7 7 4.4 10 7.6h-5c4 3.5 5 10.7 5 10.7s-2-4.8-4-8.3c-3-5-8-9.2-15-11.8-7-2.4-13-2.2-19-2.2-5 0-11 2.2-17 4-1 1.1-3 1.7-5 2.8-2 1.1-1 1.1-3 2.2 3-1.8 7-1.8 10-1.8h10c-1 1.8-3 5.3-6 6.8 8-3.2 15-3.2 23-1.5-3 1.5-5 3.3-6 3.3 6 0 13 3.5 20 6.8-2 0-2-.3-4-.3-1 0-3 .3-5 .3-6 0-13 1.7-18 5.2-7 3.3-12 10-16 16.8-3 5.1-5 11.8-5 18.6V80c0-3.5 2-5 4-8.5 1-3.3 5-5 7-8.5 0 3.5 1 5.2 1 8.5 2-6.8 5-13.6 12-18.6v8.5c4-6.7 10-10.3 17-13.5 0 1.5 0 3.2-2 5 5-3.5 11-5 16-6.8l3 1.8c3 3.2 5 8.3 7 13.5 0-1.7 2-1.7 2-3.5 3 6.8 5 13.6 5 20.4l5-5.1c0 6.8 0 13.6-4 22.1 2-3.5 4-3.5 7-5.2v8.5c0 3.5-2 6.9-3 10.3l3-3.4c3-5.2 7-10.2 8-17 2-8.5 2-15.3-1-22-2-6.8-5-11.8-10-17.1l-7-3.5s7-.6 10 5.2l-1-5.2c5 1.8 8 6.6 9 10.3v-5.1c4 1.1 7 5.7 9 9.9 0-2.4 0-4.8-1-7.4-2-5.3-2-5.3-4-7.5-4-3.5-7-5-12-6.8-4-.6-8-1-12 0l-3 .7 2-2.4c1-5.2 1-8.5 0-12-2-5.1-4-7.7-7-11.2-3-1.7-5-3.7-7-4.1-1-.7-3-1.3-5-1.3-2-.3-2 .2-2 .2 3 .9 3 1.1 5 3 2 2 2 3.3 4 5.1zM33 42l-1 .6h4c1 0 3 .3 5 .7 0 0-2 .6-4 2.8 5-1.9 7 0 12 1.8h-3c3 1.5 5 3.2 8 5-1-1.8-5-3.5-6-3.5-6-1.5-11-1.5-16 0-6 1.7-12 5.3-15 10.3-2 3.3-3 5-5 8.5-2 2.2-2 2.9-2 3.9-1 1.1-1 2.9-1 4.4 1-1.5 3-5 5-6.8 1-1.5 5-3.2 6-5v6.8c4-5 7-8.5 12-11.8 0 1.7 0 3.3-1 5 5-3.3 10-5 15-6.8v3.5c-2 0-4 1.6-4 1.6-5 3.5-8 8.5-10 13.5-1 5.27-1 12 0 17.1 0 3.3 2 6.7 4 10 1 1.9 1 3.6 3 5.3l2 1.6c0-1.6-2-5-2-6.9v-8.3c2 1.6 3 1.6 5 3.3-2-5-3-11.8-2-16.83 0 1.53 2 3.23 4 5.03-2-6.8 0-11.8 3-17.1 0 1.8 2 1.8 2 3.5 2-5 3-8.5 5-11.8h3c4 0 9 1.6 12 5.1-1-1.8 0-3.5-1-3.5 6 1.7 10 5.2 13 10.2v-6.7c5 3.2 9 8.5 10 15.27 0-3.47 0-5.27 2-6.77 2 1.5 3 3.3 5 6.77 2 1.53 2 3.23 4 6.73V85c-2-5-2-10-6-15.3-1-5-6-10-11-13.5-9-3.7-17-3.1-24-2.4 3-1.6 8-2.9 12-2.7-1-1-2-1.7-4-1.7 4-1.5 9 .2 13 .2-2-1.7-4-2.2-5-2.2 1-1.5 4-1.5 5-1.3 2 .5 3 .9 5 1.3-2-2.8-7-4.5-9-4.8-5 0-8 .3-12 1.8-3 1.7-5 3.5-7 5-1 1.5-2 1.7-2 1.7v-1.7c-1-3.3-3-5-6-6.8-4-1.5-6-2.6-9-2.8-3 0-4 .2-6 .6-2 .7-3 .7-5 1.6zm23 19.4c3 23.6 22 45.8 20 71h4c1 0 3-1.8 3-1.8 7-15-20-45.6-24-70.9z"/>
  <path style="fill:#000;filter:url(#d)" d="M342 100.1c.5-8.7-4.7-13-13.2-13-7.5 0-12.8 4.9-12.8 12.6 0 4.5 1.1 8.2 5.5 10.4 2.4 1.3 6.4 2.5 9 3.5 4.7 1.8 7.5 1.9 7.5 8.9 0 5.4-3.5 8-8.8 8-7.7 0-9-4.3-8.7-11.1h-5.1c0 2.5 0 6.1.9 8.4 2.7 6 8.1 7.3 12.6 7.3 9 0 14.4-5.1 14.4-13.8 0-6.1-1.6-9.1-10.4-12.4-2.4-.9-4.8-1.8-7.3-2.8-2.9-1.1-4.3-3-4.3-6.2 0-3.6.7-8.2 8.2-8.2 5.1 0 7.7 3.6 7.3 8.4zm-63 34h5.6l3.4-13.3h14.5l3.6 13.3h5.7l-12.9-46h-6.7zm22.4-17.9h-12.2l6.1-24.4h.2zM274 134.1v-4.6h-18.8V88.1h-5v46zm-31.6 0v-4.6h-18.9V88.1h-5.1v46zm-35.3 0v-46H202v46zm-29.2-3.7h-.1l-10.6-42.3h-5.7l13.2 46h6.3l13.2-46h-5.6zM130 92.7h7.3c3.5 0 9.7.2 9.7 8.1.2 8-6.4 8.4-8.8 8.4H130zm0 21.2h9c6 0 7.9 3.9 7.9 8.5 0 3 .5 8.7 1.6 11.7h5.9v-1c-1.2 0-1.6-2.1-1.7-2.9-.5-3.5-.9-6.8-1.1-10.3-.7-6.1-2.2-8-8-8.6v-.1c5.3-.7 8.6-4.6 8.8-10 .3-10.6-5.9-13.1-15.5-13.1H125v46h5zm-12.8 20.2v-4.6H99.03v-17H116v-4.6H99.03V92.7h18.07v-4.6H93.97v46zM57.25 92.7h11.92v41.4h5.08V92.7h11.9v-4.6h-28.9zm-11.49 32.9c0 1.8.1 3.5.13 5.2h-.13c-.6-2.2-1.04-3.6-1.59-5L31.11 88.1h-8.29v46h5.08V97.4c0-2.3-.1-4.7-.12-7h.12c.44 2.7.99 4.8 1.73 6.9l12.89 36.8h8.35v-46h-5.11zm-32.17 8.5v-46H8.5v46z"/>
  <path style="fill:url(#e)" d="M91 129.1s0 3.3 4 3.3c2 1.8 3 1.8 3 1.8 21-10.3 19-59.2 36-86.3l-4-3.5c-17 27.1-15 62.8-39 84.7m39-111.8h-5c4 1.7 8 4.4 11 7.6h-5c4 3.5 4 10.7 4 10.7s-1-4.8-3-8.3c-3-5-9-9.2-15-11.8-8-2.4-13-2.2-20-2.2-5 0-11 2.2-16 4-1 1.1-3 1.7-5 2.8-2 1.1-2 1.1-3 2.2 3-1.8 7-1.8 10-1.8h10c-2 1.8-3 5.3-7 6.8 9-3.2 16-3.2 24-1.5-3 1.5-5 3.3-7 3.3 7 0 14 3.5 21 6.8-2 0-2-.3-4-.3-1 0-3 .3-5 .3-7 0-13 1.7-18 5.2-7 3.3-12 10.1-16 16.8-3 5.1-5 11.8-5 18.6V80c0-3.5 2-5 4-8.5 1-3.3 5-5 6-8.5 0 3.5 2 5.2 2 8.5 2-6.8 5-13.6 12-18.6v8.5c3-6.7 10-10.3 17-13.5 0 1.5 0 3.2-2 5 5-3.5 10-5 15-6.8l4 1.8c3 3.2 5 8.3 7 13.5 0-1.7 1-1.7 1-3.5 4 6.8 5 13.6 5 20.4l5-5.1c0 6.8 0 13.6-3 22.1 2-3.5 3-3.5 7-5.2v8.5c0 3.5-2 6.9-4 10.3l4-3.4c3-5.2 7-10.2 8-17 2-8.5 2-15.3-1-22-2-6.8-5-11.8-11-17.1-3-1.5-6-3.5-6-3.5s7-.6 10 5.2l-1-5.2c5 1.8 8 6.6 9 10.3v-5.1c4 1.1 7 5.7 9 9.9 0-2.4 0-4.8-1-7.4-2-5.3-2-5.3-4-7.5-4-3.5-7-5-12-6.8-4-.6-9-1-12 0l-3 .7 1-2.4c2-5.2 2-8.5 0-12-1-5.1-3-7.7-6-11.2-3-1.7-6-3.7-7-4.1-2-.7-3-1.3-5-1.3-2-.3-3 .2-3 .2 4 .9 4 1.1 6 3 1 2 2 3.3 3 5.1zM33 42l-1 .6h4c1 0 3 .3 5 .7 0 0-2 .6-4 2.8 5-1.9 7 0 12 1.8h-3c3 1.5 5 3.3 8 5-2-1.7-5-3.5-7-3.5-5-1.5-10-1.5-15 0-7 1.8-12 5.3-15 10.3-2 3.3-3 5-5 8.5-2 2.2-2 2.9-3 3.9 0 1.1-1 2.9-1 4.4 2-1.5 4-5 6-6.8 1-1.5 5-3.2 6-5v6.8c4-5 7-8.5 12-11.8 0 1.7 0 3.3-2 5 6-3.3 11-5 16-6.8v3.5c-2 0-4 1.6-4 1.6-5 3.5-8 8.5-10 13.5-2 5.3-2 12 0 17.1 0 3.3 2 6.7 4 10 1 1.9 1 3.6 3 5.3l2 1.6c0-1.6-2-5-2-6.9v-8.3c2 1.6 3 1.6 5 3.3-2-5-3-11.8-2-16.8 0 1.5 2 3.2 4 5-2-6.8 0-11.8 3-17.1 0 1.8 2 1.8 2 3.5 1-5 3-8.5 5-11.8h3c4 0 9 1.6 12 5.1-2-1.8 0-3.5-2-3.5 7 1.7 11 5.2 14 10.2v-6.7c5 3.2 8 8.5 10 15.3 0-3.5 0-5.3 2-6.8 2 1.5 3 3.3 5 6.8 2 1.5 2 3.2 3 6.7V85c-1-5-1-10-5-15.3-1-5-7-10-12-13.5-8-3.7-16-3.1-23-2.4 3-1.6 8-2.9 12-2.7-1-1-2-1.7-4-1.7 4-1.5 9 .2 12 .2-1-1.7-3-2.2-5-2.2 2-1.5 5-1.5 6-1.3 2 .5 3 .9 5 1.3-3-2.8-7-4.5-9-4.8-5 0-8 .3-12 1.8-4 1.7-5 3.5-7 5-1 1.5-2 1.7-2 1.7v-1.7c-1-3.3-3-5-7-6.8-3-1.5-6-2.6-8-2.8-3 0-4 .2-7 .6-2 .7-2 .7-4 1.6zm23 19.4c3 23.6 22 45.8 20 71h4c1 0 3-1.8 3-1.8 7-15-20-45.6-24-70.9z"/>
  <path style="fill:#fff" d="M342 100.1c0-8.7-5-13-13-13s-13 4.9-13 12.5c0 4.6 1 8.3 5 10.5 3 1.3 7 2.5 9 3.5 5 1.8 8 1.9 8 8.9 0 5.4-4 8-9 8-8 0-9-4.3-9-11.1h-5c0 2.5 0 6.1 1 8.4 3 6 8 7.3 13 7.3 9 0 14-5.1 14-13.8 0-6.1-1-9.1-10-12.4-3-.9-5-1.8-8-2.8-2-1.1-4-3-4-6.2 0-3.6 1-8.2 8-8.2 5 0 8 3.6 8 8.4zm-63 34h5l4-13.3h14l4 13.3h6l-13-46h-7zm22-17.9h-12l6-24.4zm-27 17.9v-4.6h-19V88.1h-5v46zm-32 0v-4.6h-19V88.1h-5v46zm-35 0v-46h-5v46zm-29-3.7-11-42.3h-6l14 46h6l13-46h-6zm-48-37.7h7c4 0 10 .2 10 8.1 0 8-7 8.4-9 8.4h-8zm0 21.2h9c6 0 8 3.9 8 8.5 0 3 0 8.7 1 11.7h6v-1c-1 0-1-2.1-1-2.9-1-3.5-1-6.8-2-10.3 0-6.1-2-8-8-8.6v-.1c6-.7 9-4.6 9-10 1-10.6-6-13.1-15-13.1h-12v46h5zm-13 20.2v-4.6H99v-17h17v-4.6H99V92.7h18v-4.6H94v46zM57 92.7h12v41.4h5V92.7h12v-4.6H57zm-11 32.9v5.2c-1-2.2-1-3.6-2-5L31 88.1h-8v46h5V90.4c0 2.7 1 4.8 1 6.9l13 36.8h9v-46h-5zm-33 8.5v-46H8v46z"/>
</svg>
