<?xml version="1.0" encoding="UTF-8" standalone="no"?>
<svg xmlns="http://www.w3.org/2000/svg" version="1.1" width="189" height="80.47" viewBox="0 0 189 80.47">
  <g id="g10" transform="matrix(1.333,0,0,-1.333,0,80.47)">
    <path fill="#403f43" d="m 137.5,14.2 h 0.3 c 0.5,1.25 1.4,1.68 2.8,1.68 h 1.1 v -2.5 H 140 c -1.4,0 -2.5,-0.77 -2.5,-2.37 V 4.551 h -2.8 V 15.84 h 2.8 V 14.2 M 130,11.31 c -0.2,1.48 -1.1,2.39 -2.6,2.39 -1.6,0 -2.5,-0.96 -2.7,-2.39 z m -2.6,4.85 c 3.3,0 5.5,-2.3 5.5,-5.69 V 9.399 h -8.2 c 0.1,-1.548 1.2,-2.708 2.8,-2.708 1.6,0 2.4,0.888 2.8,1.684 l 2.4,-1.366 c -0.8,-1.183 -2.1,-2.776 -5.1,-2.776 -3.4,0 -5.9,2.549 -5.9,6.057 0,3.41 2.4,5.87 5.7,5.87 m -15.6,4.32 v -6.46 h 0.3 c 0.4,1.04 1.5,2 3.5,2 2.5,0 4.4,-1.8 4.4,-4.73 V 4.551 h -2.8 v 6.459 c 0,1.57 -1,2.51 -2.6,2.51 -1.8,0 -2.8,-1.14 -2.8,-3.14 V 4.551 h -2.9 V 20.48 h 2.9 M 101,15.84 v 3.5 h 2.9 v -3.5 h 3.1 v -2.41 h -3.1 V 7.647 c 0,-0.455 0.2,-0.684 0.6,-0.684 h 1.9 V 4.551 h -3.1 c -1.3,0 -2.3,0.912 -2.3,2.185 v 6.694 h -2.83 v 2.41 H 101 M 91.18,6.6 c 2,0 3.12,1.183 3.12,2.73 V 9.604 L 90.84,9.194 C 89.77,9.057 89.25,8.58 89.25,7.92 89.25,7.146 89.91,6.6 91.18,6.6 Z m 0.86,9.56 c 3.01,0 5.12,-1.76 5.12,-4.49 V 4.551 h -2.82 v 1.593 h -0.31 c -0.37,-0.75 -1.17,-1.911 -3.56,-1.911 -2.54,0 -4.23,1.365 -4.23,3.527 0,1.798 1.57,3.05 3.73,3.28 l 4.33,0.48 v 0.36 c 0,1.05 -0.78,1.96 -2.37,1.96 -1.59,0 -2.5,-0.91 -3.09,-2.19 l -2.32,1.41 c 0.88,1.3 2.52,3.1 5.52,3.1 m -9.81,-4.85 c -0.15,1.48 -1.11,2.39 -2.59,2.39 -1.62,0 -2.5,-0.96 -2.68,-2.39 z m -2.57,4.85 c 3.28,0 5.49,-2.3 5.49,-5.69 V 9.399 h -8.22 c 0.12,-1.548 1.18,-2.708 2.82,-2.708 1.6,0 2.44,0.888 2.83,1.684 L 84.92,7.009 C 84.15,5.826 82.83,4.233 79.8,4.233 c -3.37,0 -5.8,2.549 -5.8,6.057 0,3.41 2.34,5.87 5.66,5.87 M 56.58,20.48 58.5,7.464 h 0.27 L 61.2,20.48 h 4.69 L 68.33,7.464 h 0.27 l 1.91,13.016 h 3.01 L 71.01,4.551 H 66.12 L 63.68,17.57 H 63.41 L 60.97,4.551 h -4.89 l -2.5,15.929 h 3 M 43.93,15.84 v -1.82 h 0.32 c 0.45,1.04 1.5,2 3.57,2 2.5,0 4.39,-1.8 4.39,-4.73 V 4.551 h -2.87 v 6.459 c 0,1.57 -0.91,2.51 -2.54,2.51 -1.85,0 -2.83,-1.14 -2.83,-3.14 V 4.551 H 41.11 V 15.84 h 2.82 m -7.51,-4.53 c -0.16,1.48 -1.12,2.39 -2.6,2.39 -1.61,0 -2.5,-0.96 -2.68,-2.39 z m -2.58,4.85 c 3.28,0 5.49,-2.3 5.49,-5.69 V 9.399 h -8.22 c 0.12,-1.548 1.19,-2.708 2.83,-2.708 1.59,0 2.43,0.888 2.82,1.684 L 39.1,7.009 C 38.33,5.826 37.01,4.233 33.98,4.233 c -3.37,0 -5.8,2.549 -5.8,6.057 0,3.41 2.34,5.87 5.66,5.87 m -9.72,-5.97 c 0,2.19 -1.36,3.42 -3.09,3.42 -1.78,0 -3.1,-1.28 -3.1,-3.42 0,-2.134 1.32,-3.408 3.1,-3.408 1.73,0 3.09,1.228 3.09,3.408 z m -9.05,5.65 h 2.82 v -1.59 h 0.32 c 0.59,0.95 1.59,1.91 3.59,1.91 2.83,0 5.19,-2.51 5.19,-5.97 0,-3.454 -2.36,-5.957 -5.19,-5.957 -2,0 -3,0.956 -3.59,1.911 H 17.93 V -3.9e-4 H 15.07 V 15.84 M 3.004,10.7 c 0,-2.302 1.138,-3.782 3.55,-3.782 2.481,0 3.546,1.57 3.546,3.782 v 3.64 c 0,2.25 -1.316,3.77 -3.546,3.77 -2.299,0 -3.55,-1.61 -3.55,-3.77 z m 3.55,10.1 c 4.076,0 6.556,-2.53 6.556,-6.6 V 10.83 C 13.11,6.645 10.63,4.233 6.554,4.233 2.48,4.233 3.9e-4,6.645 3.9e-4,10.83 v 3.37 c 0,4.07 2.47961,6.6 6.55361,6.6" />
    <path fill="#ea4c35" d="m 47.21,31.26 v -0.12 c 0,-0.82 -0.67,-1.48 -1.49,-1.48 h -3.33 c -0.82,0 -1.48,0.66 -1.48,1.48 v 0.12 c 0,0.82 0.66,1.49 1.48,1.49 h 3.33 c 0.82,0 1.49,-0.67 1.49,-1.49 m 8.82,0 v -0.12 c 0,-0.82 -0.67,-1.48 -1.49,-1.48 h -3.32 c -0.83,0 -1.49,0.66 -1.49,1.48 v 0.12 c 0,0.82 0.66,1.49 1.49,1.49 h 3.32 c 0.82,0 1.49,-0.67 1.49,-1.49 m -2.33,6.19 v -0.12 c 0,-0.82 -0.66,-1.49 -1.48,-1.49 H 36.59 c -0.82,0 -1.48,-0.66 -1.48,-1.49 v -0.11 c 0,-0.83 0.66,-1.49 1.48,-1.49 h 0.62 c 0.82,0 1.49,-0.67 1.49,-1.49 v -0.12 c 0,-0.82 -0.67,-1.48 -1.49,-1.48 h -1.86 c -0.82,0 -1.49,-0.68 -1.49,-1.5 v -0.11 c 0,-0.83 0.67,-1.49 1.49,-1.49 h 10.17 c 0.82,0 1.48,-0.67 1.48,-1.49 v -0.12 c 0,-0.82 -0.66,-1.48 -1.48,-1.48 H 18.57 c -0.82,0 -1.5,0.66 -1.5,1.48 v 0.12 c 0,0.82 0.68,1.49 1.5,1.49 h 6.45 c 0.83,0 1.5,0.66 1.5,1.49 v 0.11 c 0,0.82 -0.67,1.5 -1.5,1.5 h -9.59 c -0.84,0 -1.5,0.66 -1.5,1.48 v 0.12 c 0,0.2 0,0.39 0.11,0.56 0.22,0.55 0.76,0.93 1.39,0.93 h 0.5 c 0.82,0 1.49,0.66 1.49,1.49 v 0.11 c 0,0.83 -0.67,1.49 -1.49,1.49 h -5.79 c -0.818,0 -1.491,0.67 -1.491,1.49 v 0.12 c 0,0.82 0.673,1.48 1.491,1.48 h 1.14 c -0.15,0.97 -0.24,1.96 -0.24,2.97 0,10.19 8.28,18.45 18.46,18.45 10.2,0 18.46,-8.26 18.46,-18.45 0,-1.01 -0.1,-2 -0.24,-2.97 h 4.5 c 0.82,0 1.48,-0.66 1.48,-1.48" />
  </g>
</svg>
