<svg xmlns="http://www.w3.org/2000/svg" xmlns:xlink="http://www.w3.org/1999/xlink" width="390" height="160" viewBox="0 0 351 144">
  <defs>
    <linearGradient gradientUnits="userSpaceOnUse" gradientTransform="matrix(0 -13.02 13.02 0 16.59 21.76)" id="a">
      <stop style="stop-opacity:1;stop-color:currentColor" offset="0"/>
      <stop style="stop-opacity:1;stop-color:currentColor" offset=".536"/>
      <stop style="stop-opacity:0;stop-color:currentColor" offset=".617"/>
      <stop style="stop-opacity:0;stop-color:currentColor" offset="1"/>
    </linearGradient>
    <linearGradient xlink:href="#a" id="b" gradientUnits="userSpaceOnUse" gradientTransform="translate(4 4.385)" x1="79.61" y1="14.2" x2="79.15" y2="126.2"/>
  </defs>
  <path class="iv-palms" style="fill:url(#b)" d="M90.99 129.1s0 3.3 4 3.3c2 1.8 3 1.8 3 1.8C119 123.9 117 74.98 134 47.88l-4-3.5c-17 27.1-15 62.82-39.01 84.72M130 17.28h-5c4 1.7 8 4.4 11 7.6h-5c4 3.5 4 10.7 4 10.7s-1-4.8-3-8.3c-3-5-9-9.2-15-11.8-8-2.4-13-2.2-20.01-2.2-5 0-11 2.2-16 4-1 1.1-3 1.7-5 2.8-2 1.1-2 1.1-3 2.2 3-1.8 7-1.8 10-1.8h10c-2 1.8-3 5.3-7 6.8 9-3.2 16.01-3.2 24.01-1.5-3 1.5-5 3.3-7 3.3 7 0 14 3.5 21 6.8-2 0-2-.3-4-.3-1 0-3 .3-5 .3-7 0-13 1.7-18.01 5.2-7 3.3-12 10.1-16 16.8-3 5.1-5 11.8-5 18.6v3.5c0-3.5 2-5 4-8.5 1-3.3 5-5 6-8.5 0 3.5 2 5.2 2 8.5 2-6.8 5-13.6 12-18.6v8.5C103 54.68 110 51.08 117 47.88c0 1.5 0 3.2-2 5 5-3.5 10-5 15-6.8l4 1.8c3 3.2 5 8.3 7 13.5 0-1.7 1-1.7 1-3.5 4 6.8 5 13.6 5 20.4l5-5.1c0 6.8 0 13.6-3 22.1 2-3.5 3-3.5 7-5.2v8.5c0 3.52-2 6.92-4 10.32l4-3.4c3-5.2 7-10.22 8-17.02 2-8.5 2-15.3-1-22-2-6.8-5-11.8-11-17.1-3-1.5-6-3.5-6-3.5s7-.6 10 5.2l-1-5.2c5 1.8 8 6.6 9 10.3v-5.1c4 1.1 7 5.7 9 9.9 0-2.4 0-4.8-1-7.4-2-5.3-2-5.3-4-7.5-4-3.5-7-5-12-6.8-4-.6-9-1-12 0l-3 .7 1-2.4c2-5.2 2-8.5 0-12-1-5.1-3-7.7-6-11.2-3-1.7-6-3.7-7-4.1-2-.695-3-1.295-5-1.295-2-.3-3 .2-3 .2 4 .895 4 1.095 6 2.995 1 2 2 3.3 3 5.1zm-97 24.7-1 .6h4c1 0 3 .3 5 .7 0 0-2 .6-4 2.8 5-1.9 7 0 12 1.8h-3c3 1.5 4.99 3.3 7.99 5-2-1.7-4.99-3.5-6.99-3.5-5-1.5-10-1.5-15 0-7 1.8-12 5.3-15 10.3-2 3.3-3 5-5 8.5-2.001 2.2-2.001 2.9-3.001 3.9 0 1.1-1 2.9-1 4.4 2-1.5 4.001-5 6.001-6.8 1-1.5 5-3.2 6-5v6.8c4-5 7-8.5 12-11.8 0 1.7 0 3.3-2 5 6-3.3 11-5 16-6.8v3.5c-2 0-4 1.6-4 1.6-5 3.5-8 8.5-10 13.5-2 5.3-2 12 0 17.1 0 3.3 2 6.72 4 10.02 1 1.9 1 3.6 3 5.3l2 1.6c0-1.6-2-5-2-6.9v-8.32c2 1.6 3 1.6 5 3.3-2-5-3-11.8-2-16.8 0 1.5 2 3.2 4 5-2-6.8 0-11.8 3-17.1 0 1.8 1.99 1.8 1.99 3.5 1-5 3-8.5 5-11.8h3c4 0 9 1.6 12 5.1-2-1.8 0-3.5-2-3.5 7 1.7 11 5.2 14 10.2v-6.7c5 3.2 8 8.5 10 15.3 0-3.5 0-5.3 2-6.8 2 1.5 3 3.3 5 6.8 2.01 1.5 2.01 3.2 3.01 6.7v-3.5c-1-5-1-10-5.01-15.3-1-5-7-10-12-13.5-8-3.7-16-3.1-23-2.4 3-1.6 8-2.9 12-2.7-1-1-2-1.7-4-1.7 4-1.5 9 .2 12 .2-1-1.7-3-2.2-5-2.2 2-1.5 5-1.5 6-1.3 2 .5 3 .9 5 1.3-3-2.8-7-4.5-9-4.8-5 0-8 .3-12 1.8-4 1.7-5 3.5-7 5-1 1.5-2 1.7-2 1.7v-1.7c-1-3.3-3-5-7-6.8-2.99-1.5-5.99-2.6-7.99-2.8-3 0-4 .2-7 .6-2 .7-2 .7-4 1.6zm22.99 19.4c3 23.6 22 45.82 20 71.02h4c1 0 3-1.8 3-1.8 7-15-20-45.62-24-70.92z"/>
  <path class="iv-left" d="M13 134.1V88.08H7.999v46.02zM46 125.6v5.2c-1-2.2-1-3.6-2-5L31 88.08h-8v46.02h5V90.38c0 2.7 1 4.8 1 6.9l13 36.82h8.99V88.08H46zM56.99 92.68h12v41.42h5V92.68h12v-4.6h-29zM117 134.1v-4.6H98.99v-17H116v-4.6H98.99V92.68H117v-4.6H93.99v46.02zM130 92.68h7c4 0 10 .2 10 8.12 0 8-7 8.4-9 8.4h-8zm0 21.22h9c6 0 8 3.9 8 8.5 0 3 0 8.7 1 11.7h6v-1c-1 0-1-2.1-1-2.9-1-3.5-1-6.8-2-10.3 0-6.1-2-8-8-8.6v-.1c6-.7 9-4.6 9-10 1-10.62-6-13.12-15-13.12h-12v46.02h5z" />
  <path class="iv-right" d="m178 130.4-11-42.32h-6l14 46.02h6l13-46.02h-6zM207 134.1V88.08h-5v46.02zM242 134.1v-4.6h-19V88.08h-5v46.02zM274 134.1v-4.6h-19V88.08h-5v46.02zM279 134.1h5l4-13.3h14l4 13.3h6l-13-46.02h-7zm22-17.9h-12l6-24.42zM342 100.1c0-8.72-5-13.02-13-13.02s-13 4.9-13 12.5c0 4.62 1 8.32 5 10.52 3 1.3 7 2.5 9 3.5 5 1.8 8 1.9 8 8.9 0 5.4-4 8-9 8-8 0-9-4.3-9-11.1h-5c0 2.5 0 6.1 1 8.4 3 6 8 7.3 13 7.3 9 0 14-5.1 14-13.8 0-6.1-1-9.1-10-12.4-3-.9-5-1.8-8-2.8-2-1.1-4-3-4-6.22 0-3.6 1-8.2 8-8.2 5 0 8 3.6 8 8.42z" />
</svg>
