<svg xmlns="http://www.w3.org/2000/svg" version="1.1" x="0" y="0" xml:space="preserve" width="699.8" height="433.3">
  <style type="text/css">
    .fw{fill:#fff}
    .st{stroke:#fff;stroke-width:1}
    .s3{fill:none;stroke:#fff;stroke-width:3}
  </style>
  <g id="rope">
    <path id="rope-text" class="fw st" d="M523.3 111.4c-1.1-1.7-1.6-3.3-1.2-4.8.3-1.6 1.4-3 3.1-4.2l7.1-4.88 1.2 1.8-7 4.78c-2.7 1.8-3.2 3.9-1.6 6.2.8 1.1 1.7 1.8 2.8 1.9 1.1.2 2.3-.2 3.6-1.2l7-4.8 1.2 1.7-7.1 4.9c-1.8 1.2-3.5 1.7-5 1.4-1.6-.1-3-1.1-4.1-2.8zm-12.6-16.38c-1-1.2-1.6-2.4-1.9-3.8-.3-1.4-.2-2.7.2-4 .5-1.3 1.2-2.4 2.4-3.4 1.1-.9 2.3-1.5 3.7-1.7 1.4-.2 2.7-.1 4 .4 1.3.5 2.4 1.3 3.4 2.5s1.6 2.4 1.9 3.8c.3 1.4.2 2.7-.2 4-.4 1.3-1.2 2.4-2.4 3.3-1.1.9-2.4 1.5-3.7 1.8-1.3.2-2.7.1-4-.4-1.3-.5-2.4-1.3-3.4-2.5zm1.4-1.2c.7.8 1.6 1.4 2.5 1.8 1 .4 1.9.4 2.9.2s1.9-.6 2.8-1.3c.8-.7 1.4-1.5 1.8-2.5.4-1 .4-1.9.2-2.9s-.6-1.9-1.4-2.8c-.7-.9-1.6-1.5-2.5-1.8-1-.4-1.9-.5-3-.3-1 .2-1.9.6-2.8 1.3-.8.7-1.4 1.5-1.8 2.5-.3 1-.4 2-.2 3 .4 1 .8 1.9 1.5 2.8zm-10-16-3.7 3.7-1.5-1.5 3.7-3.8 2.6-11.2 1.6 1.6-2.1 9.1 9.1-2.3 1.5 1.5zm-21.6-12.2.2-5.7c-.3-.2-.6-.4-.8-.5l-3-2.2-2.8 3.7-1.7-1.3 9.2-12.1 4.7 3.5c1.6 1.2 2.5 2.5 2.8 3.9.3 1.4 0 2.8-1 4.1-.7.9-1.5 1.5-2.5 1.9-.9.3-2 .3-3-.1l-.2 6.2zm.5-7.7c1.1.8 2.1 1.2 3 1.2.9 0 1.7-.5 2.4-1.4.7-.9.9-1.8.7-2.7-.2-.9-.9-1.8-2-2.6l-2.9-2.2-4.1 5.4zm-20.7-6.2c-1.3-.8-2.3-1.8-3-3-.7-1.2-1-2.5-1-3.9s.4-2.7 1.2-3.9c.8-1.2 1.7-2.2 3-2.8 1.2-.6 2.5-.9 3.9-.9 1.4.1 2.7.5 4 1.3 1.3.8 2.3 1.8 3 3 .7 1.2 1 2.5 1 3.9s-.4 2.7-1.2 3.9c-.8 1.2-1.8 2.2-3 2.8-1.2.6-2.5.9-3.9.8-1.4.1-2.7-.4-4-1.2zm1-1.6c.9.6 1.9.9 2.9.9s2-.2 2.9-.7c.9-.5 1.6-1.2 2.2-2.1.6-.9.9-1.9.9-2.9s-.2-2-.7-2.9c-.5-.9-1.2-1.6-2.1-2.2-.9-.6-1.9-.9-3-.9-1 0-2 .2-2.9.7-.9.5-1.6 1.2-2.2 2.1-.6.9-.9 1.9-.9 2.9s.2 2 .7 2.9c.5.9 1.2 1.6 2.2 2.2zm-14-20.7-2.3 4.7 6.8 3.4-.8 1.7-6.8-3.4-2.7 5.5-1.9-1 6.7-13.5 9.6 4.7-.8 1.7zm-22.7-3.5 2 .7-1.9 5.6c-.9.3-1.9.5-3 .5-1 0-2.1-.2-3.1-.5-1.4-.5-2.6-1.2-3.6-2.3-.9-1-1.6-2.2-1.8-3.5-.3-1.3-.2-2.7.3-4.1.5-1.4 1.2-2.5 2.3-3.4 1-.9 2.3-1.5 3.6-1.7 1.4-.2 2.8-.1 4.3.4 1.1.4 2.1.9 2.9 1.6.8.7 1.4 1.5 1.8 2.5l-1.7.8c-.8-1.5-2-2.5-3.6-3.1-1.1-.4-2.2-.5-3.2-.3s-1.9.6-2.7 1.3c-.8.7-1.3 1.5-1.7 2.6-.4 1-.4 2.1-.2 3.1s.7 1.9 1.4 2.7c.7.8 1.6 1.3 2.7 1.7 1.3.4 2.5.5 3.7.2zm-16.3-13-3.5 14.7-1.7-.4-6.3-13-2.6 11-2.1-.5 3.5-14.7 1.7.4 6.2 13 2.6-11zm-23.6-4.9 2.1.3-2.4 14.9-2.1-.3zm-14.1.2-5.1-.5.2-1.9 12.4 1.2-.2 1.9-5.2-.5-1.3 13.2-2.1-.2zm-13.9-2.7 2.2.1-.5 15.1-2.2-.1zm-10.1 11.2-8 .3-1.5 3.8-2.2.1 6.3-15.3 2.1-.1 7.4 14.8-2.3.1zm-.9-1.7-3.5-7.3-3 7.5zm-16.9-8.9-2.8 15.7-2.2.3-5.8-11.3-2.3 12.5-2.3.3-7.2-14.2 2.2-.3 5.8 11.6 2.4-12.8 2-.3 5.9 11.6 2.3-12.8zm-39.6 23.7c-1.1.3-2.2.5-3.3.5-1.1 0-2-.2-2.8-.6l.3-1.8c.7.3 1.5.5 2.5.6 1 .1 1.9-.1 2.8-.3 1.2-.4 2-.8 2.5-1.4.5-.6.6-1.2.4-1.9-.2-.5-.4-.8-.9-1-.4-.2-.9-.3-1.4-.4h-2.2c-1.2.1-2.1.1-2.9 0-.8-.1-1.4-.3-2.1-.7-.6-.4-1.1-1.1-1.4-2-.2-.8-.2-1.5 0-2.3.2-.8.7-1.4 1.4-2 .7-.6 1.7-1.1 2.9-1.5.8-.3 1.7-.4 2.6-.4.9 0 1.7.1 2.4.3l-.2 1.9c-.7-.2-1.5-.3-2.2-.3-.7 0-1.4.1-2.1.3-1.2.4-2 .8-2.5 1.4-.4.6-.6 1.2-.4 1.9.2.5.4.8.9 1.1.4.2.9.3 1.5.4.5 0 1.3 0 2.1-.1 1.2-.1 2.1-.1 2.9 0 .7.1 1.4.3 2.1.7.6.4 1.1 1 1.4 1.9.2.8.2 1.5 0 2.3-.2.8-.7 1.4-1.4 2.1-.7.4-1.7.9-2.9 1.3zm-19.1-9.6 2-.8 5.3 14.1-2 .8zm-13.8 18.2-7.1 3.7.2 4.1-2 1-.8-16.6 1.9-1 13 10.3-2 1zm-1.4-1.2-6.3-5.1.5 8.1zm-31.5 7.2 5.4-3.4c1.3-.9 2.7-1.4 4.1-1.5 1.4-.1 2.7.1 3.9.7 1.2.6 2.2 1.5 3 2.8.8 1.3 1.2 2.6 1.2 3.9 0 1.3-.3 2.6-1 3.8-.7 1.2-1.7 2.2-3.1 3.1l-5.4 3.4zm12.4 7.8c1-.7 1.8-1.4 2.3-2.3.5-.9.8-1.9.7-2.8 0-1-.4-2-1-2.9-.6-.9-1.4-1.6-2.2-2.1-.9-.5-1.9-.6-2.9-.5-1 .1-2.1.5-3.1 1.1l-3.4 2.2 6.1 9.6zm-21.4-1.2 1.7-1.3 9 12.1-1.7 1.3zm2 17.6-5.5-1.4-.7.7-2.8 2.4 3 3.5-1.6 1.4-9.9-11.5 4.5-3.8c1.5-1.3 3-1.9 4.4-1.9 1.5 0 2.7.6 3.8 1.8.8.9 1.2 1.8 1.3 2.8.1 1-.1 2-.7 3l6 1.5zm-7.4-2.1c1-.9 1.6-1.8 1.8-2.7.2-.9-.1-1.8-.8-2.6-.7-.8-1.5-1.2-2.5-1.2-.9 0-1.9.5-3 1.4l-2.8 2.4 4.4 5.2zm-10.4 18.9c-1.1 1.1-2.3 1.9-3.6 2.3-1.3.4-2.7.5-4 .2-1.3-.3-2.5-1-3.6-2s-1.8-2.2-2.1-3.5c-.4-1.3-.4-2.7 0-4 .4-1.4 1.1-2.6 2.1-3.7s2.2-1.8 3.6-2.3c1.3-.4 2.6-.5 4-.2 1.3.3 2.5 1 3.6 2s1.8 2.2 2.1 3.5c.3 1.3.4 2.6 0 4s-1.1 2.7-2.1 3.7zm-1.4-1.3c.8-.8 1.3-1.7 1.5-2.7.2-1 .2-2-.1-3-.3-1-.8-1.8-1.6-2.6s-1.7-1.3-2.7-1.5c-1-.2-2-.2-2.9.1-1 .3-1.8.8-2.6 1.6s-1.3 1.7-1.5 2.7c-.3 1-.2 2 0 3 .3 1 .8 1.9 1.6 2.6.8.8 1.7 1.3 2.7 1.5 1 .2 2 .2 3-.1.9-.2 1.8-.8 2.6-1.6zm-25.5 9.1 1.3-1.7 10.3 8.3 5.1-6.4 1.5 1.2-6.5 8.08zM164 107.3l4.4 3 4.2-6.3 1.5 1-4.2 6.3 5 3.4-1.2 1.8-12.5-8.5 6-8.78 1.5.98z"/>
    <path id="circle" class="s3" d="M523.2 248.8c1.2 9.5-5 15.1-4.2 23.8 17.5-2.7 26.1-13.1 21.2-37.4-1.8 9.3-10.6 10.1-17 13.6zm-4 24.2c-.4 9.6-7.3 14.2-7.9 22.9 17.8-.1 27.7-9.1 26.6-33.6-1.6 4.5-4.6 6.5-8 7.7-3.4 1.2-7.2 1.7-10.7 3zm-7.8 23.3c-1.8 9.5-9.3 13.1-11 21.7 17.8 2.3 28.5-5.2 31.1-29.5-2.2 4.2-5.5 5.7-9 6.4-3.5.7-7.4.6-11.1 1.4zm-11 22.1c-3.1 9.2-11.1 11.8-14 20.2 17.5 4.6 29.1-1.4 35.1-25.1-2.9 3.8-6.3 4.9-9.9 5.1-3.6.2-7.4-.5-11.2-.2zm-14 20.5c-4.1 8.4-12.4 9.9-16.5 18.3 16.7 6.8 29 2.4 38.1-20.3-3.3 3.4-6.9 4-10.5 3.7-3.6-.3-7.3-1.4-11.1-1.7zm-16.6 18.6c-5.1 7.8-13.6 8.3-18.7 16 15.7 9 28.4 6.2 40.4-15.2-3.7 2.9-7.3 3.1-10.9 2.3-3.5-.7-7.1-2.3-10.8-3.1zM451 373.9c-6.4 7.3-14.8 6.7-20.6 13.4 14.3 10.9 27.3 9.7 42-9.9-4.1 2.4-7.7 2.1-11.1.9-3.4-1.2-6.7-3.2-10.3-4.4zm-20.7 13.7c-7.3 6.4-15.4 4.7-22.1 10.4 12.6 12.7 25.7 13.4 42.8-4.1-4.4 1.9-7.9 1-11.1-.6-3.3-1.6-6.2-4.1-9.6-5.7zM408 398.3c-8 5.3-15.8 2.4-23.2 7.1 10.6 14.4 23.5 16.9 42.8 2-4.6 1.2-7.9-.1-10.9-2.1-3-2.1-5.6-4.9-8.7-7zm-23.4 7.4c-8.7 4-15.9-.1-24 3.4 8.2 16 20.8 20.4 42 8.3-4.7.6-7.8-1.1-10.4-3.6-2.7-2.4-4.8-5.6-7.6-8.1zm-24.3 3.6c-4 1.2-7.6.8-11 .2-4.5-.7-8.4-1.8-13.3-.5 2.8 8.6 6.9 14.3 13.3 17 6.5 2.7 15.6 2.2 27.1-2.2-4.7-.1-7.6-2.3-9.8-5.2-2.3-2.9-4-6.3-6.3-9.3zm-24.6-.2c-9.5 1.2-15.1-5-23.8-4.2 2.7 17.5 13.1 26.1 37.4 21.2-4.7-.9-7.2-3.6-8.9-6.8-1.8-3.2-2.9-6.9-4.7-10.2zm-24.2-4c-9.6-.4-14.2-7.3-22.9-7.9.1 17.8 9.1 27.7 33.6 26.6-4.5-1.6-6.5-4.6-7.7-8-1.2-3.4-1.7-7.2-3-10.7zm-23.3-7.8c-9.5-1.8-13.1-9.3-21.7-11-2.3 17.8 5.2 28.5 29.5 31.1-4.2-2.2-5.7-5.5-6.4-9-.7-3.5-.6-7.4-1.4-11.1zm-22.1-11c-9.2-3.1-11.8-11.1-20.2-14-4.6 17.5 1.4 29.1 25.1 35.1-3.8-2.9-4.9-6.3-5.1-9.9-.2-3.6.5-7.4.2-11.2zm-20.5-14c-8.4-4.1-9.9-12.4-18.3-16.5-6.8 16.7-2.4 29 20.3 38.1-3.4-3.3-4-6.9-3.7-10.5.3-3.6 1.4-7.3 1.7-11.1zM227 355.7c-7.8-5.1-8.3-13.6-16-18.7-9 15.7-6.2 28.4 15.2 40.4-2.9-3.7-3.1-7.3-2.3-10.9.7-3.5 2.3-7.1 3.1-10.8zm-16.4-18.8c-7.3-6.4-6.7-14.8-13.4-20.6-10.9 14.3-9.7 27.3 9.9 42-2.4-4.1-2.1-7.7-.9-11.1 1.2-3.4 3.2-6.7 4.4-10.3zm-13.7-20.7c-6.4-7.3-4.7-15.4-10.4-22.1-12.7 12.6-13.4 25.7 4.1 42.8-1.9-4.4-1-7.9.6-11.1 1.6-3.3 4.1-6.2 5.7-9.6zm-10.7-22.3c-5.3-8-2.4-15.8-7.1-23.2-14.4 10.6-16.9 23.5-2 42.8-1.2-4.6.1-7.9 2.1-10.9 2.1-3 4.9-5.6 7-8.7zm-7.4-23.4c-4-8.7.1-15.9-3.4-24-16 8.2-20.4 20.8-8.3 42-.6-4.7 1.1-7.8 3.6-10.4 2.4-2.7 5.6-4.8 8.1-7.6zm-3.6-24.3c-1.2-4-.8-7.6-.2-11 .7-4.5 1.8-8.4.5-13.3-8.6 2.8-14.3 6.9-17 13.3-2.7 6.5-2.2 15.6 2.2 27.1.1-4.7 2.3-7.6 5.2-9.8 2.9-2.3 6.3-4 9.3-6.3zm.2-24.6c-1.2-9.5 5-15.1 4.2-23.8-17.5 2.7-26.1 13.1-21.2 37.4.9-4.7 3.6-7.2 6.8-8.9 3.2-1.8 6.9-2.9 10.2-4.7zm4-24.2c.4-9.6 7.3-14.2 7.9-22.9-17.8.1-27.7 9.1-26.6 33.6 1.6-4.5 4.6-6.5 8-7.7 3.4-1.2 7.2-1.7 10.7-3zm7.8-23.3c1.8-9.5 9.3-13.1 11-21.7-17.7-2.3-28.5 5.2-31.1 29.5 4.4-8.2 12.9-6.3 20.1-7.8zm11-22.1c3.1-9.2 11.1-11.8 14-20.2-17.5-4.6-29.1 1.4-35.1 25.1 5.6-7.5 13.8-4.4 21.1-4.9zm14-20.5c4.1-8.4 12.4-9.9 16.5-18.3-16.7-6.8-29-2.4-38.1 20.3 6.6-6.6 14.2-2.5 21.6-2zm16.6-18.6c5.1-7.8 13.6-8.3 18.7-16.04-15.7-8.93-28.4-6.12-40.4 15.24 7.4-5.8 14.4-.6 21.7.8zm18.8-16.37c6.4-7.36 14.8-6.74 20.6-13.39-14.3-10.89-27.3-9.78-42 9.82 8.1-4.74 14.4 1.24 21.4 3.57zm20.7-13.7c7.3-6.42 15.4-4.68 22.1-10.42-12.6-12.73-25.7-13.39-42.8 4.08 8.6-3.63 14.1 3.12 20.7 6.34zm22.3-10.71c8-5.33 15.8-2.43 23.2-7.12-10.6-14.42-23.5-16.94-42.8-1.96 9-2.43 13.5 4.98 19.6 9.08zm23.4-7.37c8.7-4.07 15.9 0 24-3.46-8.2-15.98-20.8-20.44-42-8.33 4.7-.58 7.8 1.16 10.4 3.61 2.7 2.46 4.8 5.63 7.6 8.18zm24.3-3.68c4-1.14 7.6-.77 11-.18 4.5.73 8.4 1.79 13.3.55-2.8-8.69-6.9-14.37-13.3-17.06-6.5-2.67-15.6-2.2-27.1 2.22 4.7.12 7.6 2.33 9.8 5.17 2.3 2.93 4 6.37 6.3 9.3zm24.6.2c9.5-1.16 15.1 4.98 23.8 4.2C384 48 373.6 39.38 349.3 44.32c9.3 1.81 10.1 10.59 13.6 16.95zm24.2 4.07c9.6.37 14.2 7.3 22.9 7.81-.1-17.8-9.1-27.6-33.6-26.55 8.8 3.21 8.2 11.92 10.7 18.74zm23.3 7.74c9.5 1.79 13.1 9.33 21.7 11.06 2.3-17.79-5.2-28.58-29.5-31.18 8.2 4.48 6.3 12.96 7.8 20.12zm22.1 11.04c9.2 3.1 11.8 11.09 20.2 13.97 4.6-17.45-1.4-29.05-25.1-35.05 7.5 5.6 4.4 13.74 4.9 21.08zM453 98.1c8.4 4.1 9.9 12.4 18.3 16.5 6.8-16.72 2.4-28.96-20.3-38.1 6.6 6.57 2.5 14.23 2 21.6zm18.6 16.6c7.8 5.1 8.3 13.6 16 18.7 9-15.7 6.2-28.4-15.2-40.44 5.8 7.44.6 14.44-.8 21.74zm16.4 18.8c7.3 6.4 6.7 14.8 13.4 20.6 10.9-14.3 9.7-27.3-9.9-42 4.8 8.1-1.2 14.4-3.5 21.4zm13.7 20.7c6.4 7.3 4.7 15.4 10.4 22.1 12.7-12.6 13.4-25.7-4.1-42.8 3.6 8.6-3.1 14.1-6.3 20.7zm10.7 22.3c5.3 8 2.4 15.8 7.1 23.2 14.4-10.6 16.9-23.5 2-42.8 2.4 9-5 13.5-9.1 19.6zm7.4 23.4c4 8.7-.1 15.9 3.4 24 16-8.2 20.4-20.8 8.3-42 .6 4.7-1.1 7.8-3.6 10.4-2.4 2.7-5.6 4.8-8.1 7.6zm3.6 24.3c2.7 9.2-2.6 15.7-.5 24.4 17.4-5.5 23.9-17.5 15-40.5-.1 4.7-2.3 7.6-5.2 9.8-2.9 2.3-6.3 4-9.3 6.3z"/>
    <path id="boat" class="fw" d="M184.6 233c6.4-1.5 12.9-2.5 19.4-3.4 8.5-1.2 17-2.1 25.5-2.8 11.8-1 23.5-1.8 35.3-2.1 30.5-.8 60.9 0 91.3 2.4 5.3.4 10.6 1 15.9 1.6 5.8.6 11.6 1.3 17.3 2 6.9.8 13.7 1.6 20.5 2.7 6.4 1 12.8 2.1 19.2 3.3 8.5 1.6 16.9 3.3 25.2 5.3 6.9 1.7 13.8 3.6 20.6 5.7 12.2 3.8 24.1 8.2 35 15 3.2 2 5.5 3.9 8.8 7.3-5.7-1.9-11.5-4.2-16.3-6-10.4-3.8-20.9-7.2-31.6-10.3-7.2-2-14.4-4-21.7-5.8-11.2-2.8-24-5.2-31.7-6.8-3.7-.6-7.4-1.3-11.1-1.9-6.1-1-12.3-1.7-18.4-2.8-8.5-1.4-17.1-2.4-25.6-3.3-10.6-1.1-21.3-2.1-31.9-2.8-14.4-1.1-28.7-1.6-43.1-2-15.9-.5-31.8 0-47.7.8v.1c.4-.1.9-.1 1.2.2.6.3 1 .3 1.4.3 4.5.2 8.9.4 13.4.6 1.5.6 3.1.3 4.7.3 2.5.1 4.9 0 7.4.2 11.5 1 23.1 1.9 34.6 3 6.4.6 12.8 1.5 19.1 2.3 4.5.6 8.9 1.2 13.4 1.9 6 .9 12 1.8 18 2.8 6.7 1.2 15.3 2.6 19.9 4.6-2.2-.1-4-.4-6.3-.6-5.2-.4-10.5-.5-15.4-.9-10.2-.7-20.5-1.5-30.7-2.2-8.1-.5-16.1-1-24.2-1.4-2.7-.2-3.3-.2-5-.4-2.8.1-5.6-.2-8.5-.5-.1-.1-.2-.1-.4-.1-.1 0-.2 0-.2-.1h-2.2c-.4 0-.8.1-1.2 0-11-.4-21.9-1-32.9-1.2-11.5-.2-23.1-.6-34.5 1.2-2.3.4-4.7.8-6.7 2.3-1.2.9-1.3 1.8-.4 3 1 1.5 2.4 2.4 3.8 3.3 6.7 4.2 14.1 7.1 21.4 10 1.9.7 4 1.1 5.5 2.7-12.8-2.8-25.1-7-36.9-12.9-7-3.5-13.6-7.7-19.3-13.8 2.5-.1 4.3-.3 6.1-.8zm152.1 46c5.6-.4 11-1.9 16.6-2.8 9.1-1.5 18.2-2.9 27.4-4 10.6-1.3 21.1-2.1 31.8-2.1 15.1-.1 30.1.9 44.4 6.4 1.7.6 3.6 1 5.1 2.8-1.4-.2-2.3-.3-3.2-.5-7.2-2.2-14.6-2.9-22.1-3.4-14.6-1.1-29.2-.6-43.8 0-6.6.3-13.3.8-19.9 1.4-9.1.7-18.1 1.8-27.2 2.3-1.4.1-1.6.2-2.4.3-.8.1-1.6.1-2.4.2-1.6.3-2.3.2-3.7.5h-.6c-.7.1-1.4.3-1.9-.6.6-.2 1.3-.3 1.9-.5zm73.1-12.6c-10.2-2.7-20.4-3.1-30.8-2.6-7.7.4-15.3 1.1-22.9 2.1-6.4.8-12.7 1.7-19.1 2.9-7 1.2-14 2.2-21.1 3.2-7.1 1-14.2 2.2-21.3 2.9-14.9 1.6-29.8 2.4-44.7.7-9.5-1.1-18.7-3.4-27.2-7.7-.3-.1-.6-.2-1-.3-.2 0-.4.1-.8.2 2 2 4.2 3.4 6.5 4.6 8.4 4.8 17.5 7.6 27.2 8.9 13.1 1.8 26.1 1.4 39.2.1 8.2-.8 16.3-2 24.4-3.3 7.8-1.3 15.6-2.7 23.4-4.2 8.2-1.6 16.4-3 24.6-4.3 12.9-2.1 25.9-3.8 39-3.4 1.5.2 3.1.2 4.6.2zm43.7-29c-1.1-2.1-2.6-3.3-3.9-4.7-6.7-7.3-14-14-22.9-18.6-5.5-2.8-11.4-4.7-17.3-6.8-5.3-1.8-10.7-3.5-16.1-5.4-2-.7-4.1-1.3-6.2-1.4-6.2-.2-12.3-.3-18.5.2-6.4.4-12.8 1-19.2 2.2-8.6 1.6-17 3.7-24.8 8-1.1.6-3.1 1.2-2.7 2.2.4 1 1.9-.5 2.9-.9 14.7-6 30.1-7 45.7-6.8 3.8.1 7.5-.1 11.9.6-5.6 4.3-10.7 8.2-15.9 12.1 2.4-.2 4.3-1.5 6.3-2.4 5.4-2.6 10.8-5.3 16.2-8.1 1.1-.6 2.3-.6 3.4-.2 8.2 3.2 16.6 5.6 24.5 9.6 2.1 1.1 2.9 2.1 2.2 4.3-.3 1.2-.7 2.4-.4 3.9 1.2-1.3 1.7-2.7 2.4-4 .4-.7.8-1.3 1.7-.7 4 2.5 7.6 5.4 10.9 8.9-22.8-2.1-45.7-4.3-68.5-6.4 29.4 4.7 58.8 8.3 88.3 14.4z"/>
  </g>
  <g id="ribbon" class="s3">
    <path id="lines" d="M7 203.1h135.7M7.1 257.9h135.8M557 201.5h135.7M557 256.3h135.8"/>
    <path id="banner-text" class="fw st" d="M667.2 233.6h-6.5l-1.3 3h-1.8l5.5-12.2h1.7l5.5 12.2h-1.7zm-.6-1.4-2.6-6-2.6 6zm-23.2-7.7h5.1c1.3 0 2.4.3 3.4.8s1.8 1.2 2.3 2.2c.6.9.8 2 .8 3.2 0 1.2-.3 2.3-.8 3.2-.5.9-1.3 1.6-2.3 2.1-1 .5-2.1.8-3.4.8h-5.1zm5.1 10.6c1 0 1.8-.2 2.6-.6.8-.4 1.3-.9 1.7-1.6.4-.7.6-1.5.6-2.4 0-.9-.2-1.7-.6-2.4-.4-.7-1-1.2-1.7-1.6-.7-.4-1.6-.6-2.6-.6h-3.3v9.1h3.3zm-12.2-10.6h1.7v12.2h-1.7zm-6.2 12.2-2.6-3.7h-3.8v3.7H622v-12.2h4.7c1.6 0 2.8.4 3.7 1.1.9.8 1.4 1.8 1.4 3.1 0 .9-.2 1.7-.7 2.4-.5.7-1.1 1.1-2 1.4l2.9 4.1h-1.9zm-3.4-5.2c1.1 0 1.9-.2 2.5-.7.6-.5.9-1.2.9-2 0-.9-.3-1.5-.9-2-.6-.5-1.4-.7-2.5-.7h-3v5.5zm-15.5 5.3c-1.2 0-2.3-.3-3.3-.8s-1.8-1.3-2.3-2.2c-.6-1-.8-2-.8-3.2 0-1.2.3-2.2.8-3.2.6-.9 1.3-1.7 2.3-2.2 1-.5 2.1-.8 3.3-.8 1.2 0 2.3.3 3.3.8s1.8 1.3 2.3 2.2c.6.9.8 2 .8 3.2 0 1.2-.3 2.2-.8 3.2-.6.9-1.3 1.7-2.3 2.2-1 .5-2.1.8-3.3.8zm0-1.5c.9 0 1.7-.2 2.4-.6.7-.4 1.3-1 1.7-1.7.4-.7.6-1.5.6-2.4 0-.9-.2-1.7-.6-2.4-.4-.7-1-1.3-1.7-1.7-.7-.4-1.5-.6-2.4-.6-.9 0-1.7.2-2.4.6-.7.4-1.3 1-1.7 1.7-.4.7-.6 1.5-.6 2.4 0 .9.2 1.7.6 2.4.4.7 1 1.3 1.7 1.7.7.3 1.5.6 2.4.6zm-17.5-10.8h1.7v10.6h6.6v1.5h-8.3zm-11 1.5v4.2h6.1v1.5h-6.1v4.9H581v-12.1h8.6v1.5zm-453.2 10.8c-.9 0-1.8-.1-2.6-.4-.9-.3-1.5-.7-2-1.1l.6-1.4c.5.4 1 .8 1.8 1 .7.3 1.5.4 2.2.4 1 0 1.8-.2 2.2-.5.5-.3.8-.8.8-1.4 0-.4-.1-.8-.4-1-.3-.3-.6-.5-1-.6-.4-.1-1-.3-1.7-.5-.9-.2-1.7-.4-2.2-.7-.5-.3-1-.6-1.5-1-.4-.5-.6-1.1-.6-1.8s.2-1.2.5-1.8c.3-.5.9-.9 1.5-1.2.7-.3 1.6-.5 2.6-.5.7 0 1.4.1 2.1.3.7.2 1.3.5 1.8.8l-.6 1.4c-.5-.3-1-.6-1.6-.7-.6-.2-1.1-.2-1.7-.2-1 0-1.7.2-2.2.5-.5.4-.7.8-.7 1.4 0 .4.1.8.4 1 .3.3.6.5 1 .6.4.1 1 .3 1.7.5.9.2 1.6.5 2.2.7.6.2 1 .6 1.4 1 .4.4.6 1.1.6 1.8 0 .6-.2 1.2-.5 1.8-.3.5-.9.9-1.6 1.2-.6.2-1.4.4-2.5.4zm-8.9-3.2h-6.5l-1.3 3H111l5.5-12.2h1.7l5.5 12.2h-1.8zm-.6-1.4-2.6-6-2.6 6zm-17.9-7.7h1.7v10.6h6.6v1.5h-8.3zm-10.8 0H93v10.6h6.6v1.5h-8.3zm-5.8 0h1.7v12.2h-1.7zm-2.3 0-5.3 12.2h-1.7l-5.3-12.2h1.9l4.4 10 4.4-10zm-15.5 12.2-2.6-3.7h-3.8v3.7h-1.7v-12.2h4.7c1.6 0 2.8.4 3.7 1.1.9.8 1.4 1.8 1.4 3.1 0 .9-.2 1.7-.7 2.4-.5.7-1.1 1.1-2 1.4l2.9 4.1h-1.9zm-3.4-5.2c1.1 0 1.9-.2 2.5-.7.6-.5.9-1.2.9-2 0-.9-.3-1.5-.9-2-.6-.5-1.4-.7-2.5-.7h-3v5.5zm-8 3.6v1.5h-8.8v-12.1h8.6v1.5h-6.8v3.7h6.1v1.5h-6.1v3.9zm-17-9.1h-4.2v-1.5h10.1v1.5H41v10.6h-1.7V226zm-6.6-1.5v12.2h-1.4l-7.3-9.1v9.1h-1.7v-12.2h1.4l7.3 9.1v-9.1zm-16.2 0h1.7v12.2h-1.7z"/>
  </g>
</svg>
