<svg xmlns="http://www.w3.org/2000/svg" width="169" height="50" fill="none">
  <rect width="168" height="50" x="0.316" fill="#000" rx="10"></rect>
  <path fill="#fff" d="M35.715 26.06a7.53 7.53 0 0 1 .994-3.642 7.6 7.6 0 0 1 2.639-2.714 7.8 7.8 0 0 0-2.683-2.373 7.85 7.85 0 0 0-3.47-.93c-2.588-.27-5.098 1.539-6.417 1.539-1.345 0-3.376-1.512-5.563-1.467a8.24 8.24 0 0 0-4.001 1.186 8.16 8.16 0 0 0-2.894 2.99c-2.981 5.125-.758 12.658 2.098 16.801 1.43 2.029 3.1 4.295 5.284 4.215 2.139-.088 2.937-1.354 5.518-1.354 2.557 0 3.306 1.354 5.536 1.303 2.294-.037 3.74-2.038 5.119-4.086a16.7 16.7 0 0 0 2.34-4.734 7.36 7.36 0 0 1-3.27-2.694 7.3 7.3 0 0 1-1.23-4.04m-4.21-12.384a7.42 7.42 0 0 0 1.718-5.343 7.66 7.66 0 0 0-4.945 2.54 7.05 7.05 0 0 0-1.763 5.145 6.36 6.36 0 0 0 2.766-.6 6.3 6.3 0 0 0 2.224-1.742m32.098 19.54h-6.49l-1.56 4.466h-2.748l6.147-16.522h2.857l6.147 16.522H65.16zm-5.818-2.06h5.145l-2.537-7.248h-.07zm23.448.504c0 3.743-2.065 6.148-5.18 6.148a4.3 4.3 0 0 1-2.266-.51 4.15 4.15 0 0 1-1.64-1.598h-.06v5.966H69.54v-16.03h2.467v2.004h.046a4.35 4.35 0 0 1 1.674-1.595 4.5 4.5 0 0 1 2.28-.535c3.15 0 5.227 2.417 5.227 6.15zm-2.619 0c0-2.44-1.299-4.043-3.28-4.043-1.948 0-3.257 1.637-3.257 4.043 0 2.427 1.31 4.052 3.256 4.052 1.982 0 3.281-1.592 3.281-4.053zm16.283 0c0 3.743-2.065 6.148-5.18 6.148a4.3 4.3 0 0 1-2.266-.51 4.15 4.15 0 0 1-1.64-1.598h-.06v5.966h-2.548v-16.03h2.467v2.004h.047a4.34 4.34 0 0 1 1.673-1.595 4.5 4.5 0 0 1 2.28-.535c3.15 0 5.227 2.417 5.227 6.15m-2.619 0c0-2.44-1.299-4.043-3.28-4.043-1.948 0-3.257 1.637-3.257 4.043 0 2.427 1.31 4.052 3.256 4.052 1.982 0 3.281-1.592 3.281-4.053zm11.649 1.418c.189 1.639 1.829 2.715 4.071 2.715 2.148 0 3.693-1.076 3.693-2.553 0-1.283-.932-2.05-3.139-2.577l-2.207-.516c-3.126-.732-4.578-2.151-4.578-4.454 0-2.85 2.56-4.808 6.196-4.808 3.598 0 6.065 1.958 6.148 4.808h-2.573c-.154-1.648-1.559-2.644-3.611-2.644s-3.458 1.007-3.458 2.473c0 1.168.897 1.855 3.092 2.381l1.876.447c3.494.802 4.945 2.164 4.945 4.58 0 3.091-2.537 5.027-6.573 5.027-3.776 0-6.326-1.89-6.491-4.879zm15.956-10.292v2.85h2.361v1.959h-2.361v6.64c0 1.032.473 1.513 1.51 1.513a8 8 0 0 0 .839-.058v1.947a7.2 7.2 0 0 1-1.416.114c-2.513 0-3.493-.916-3.493-3.252v-6.904h-1.805v-1.958h1.805v-2.85zm3.728 8.874c0-3.79 2.301-6.172 5.888-6.172 3.6 0 5.889 2.382 5.889 6.172 0 3.8-2.277 6.171-5.889 6.171-3.61 0-5.888-2.37-5.888-6.171m9.181 0c0-2.6-1.228-4.134-3.293-4.134s-3.291 1.546-3.291 4.134c0 2.61 1.226 4.133 3.291 4.133s3.293-1.523 3.293-4.133m4.696-6.024h2.431v2.05h.059a2.87 2.87 0 0 1 1.095-1.602 3.02 3.02 0 0 1 1.891-.574q.441-.001.873.092v2.313a3.7 3.7 0 0 0-1.145-.15 2.6 2.6 0 0 0-1.082.186 2.6 2.6 0 0 0-.903.607 2.5 2.5 0 0 0-.558.918 2.4 2.4 0 0 0-.112 1.06v7.145h-2.549zm18.099 8.508c-.342 2.187-2.537 3.687-5.345 3.687-3.612 0-5.853-2.348-5.853-6.114 0-3.778 2.253-6.229 5.746-6.229 3.434 0 5.594 2.29 5.594 5.942v.847h-8.768v.15c-.04.443.017.89.168 1.31s.392.804.708 1.127.699.576 1.124.744a3.3 3.3 0 0 0 1.34.23 2.88 2.88 0 0 0 1.723-.386 2.76 2.76 0 0 0 1.144-1.308zm-8.614-3.595h6.207a2.8 2.8 0 0 0-.183-1.172 2.9 2.9 0 0 0-.651-1.002 3 3 0 0 0-1.011-.666 3.1 3.1 0 0 0-1.2-.217 3.2 3.2 0 0 0-1.211.227 3.2 3.2 0 0 0-1.027.662 3 3 0 0 0-.685.994c-.159.372-.24.771-.239 1.174M57.465 8.724a3.7 3.7 0 0 1 1.57.23 3.6 3.6 0 0 1 1.317.858c.369.377.646.83.812 1.323.167.494.218 1.018.15 1.533 0 2.537-1.412 3.994-3.849 3.994H54.51V8.724zm-1.684 6.816h1.542c.382.022.764-.039 1.118-.178.355-.14.673-.353.931-.627.259-.273.451-.6.564-.954.112-.355.141-.73.085-1.096.052-.366.02-.738-.094-1.09a2.5 2.5 0 0 0-.565-.947 2.6 2.6 0 0 0-.927-.623 2.65 2.65 0 0 0-1.112-.18h-1.542zm6.969-1.875a2.8 2.8 0 0 1 .136-1.166 2.8 2.8 0 0 1 .611-1.013c.275-.293.609-.527.981-.687a3 3 0 0 1 2.367 0c.373.16.707.394.981.687a2.78 2.78 0 0 1 .748 2.179 2.8 2.8 0 0 1-.135 1.168 2.8 2.8 0 0 1-.61 1.015 2.9 2.9 0 0 1-.982.688 3 3 0 0 1-2.37 0 2.9 2.9 0 0 1-.982-.688 2.8 2.8 0 0 1-.61-1.015 2.8 2.8 0 0 1-.135-1.168m4.57 0c0-1.298-.6-2.058-1.656-2.058-1.06 0-1.655.76-1.655 2.058 0 1.31.596 2.063 1.655 2.063 1.055 0 1.656-.76 1.656-2.063m8.994 2.998H75.05l-1.276-4.412h-.096l-1.27 4.412h-1.253l-1.702-5.991h1.236l1.106 4.571h.091l1.27-4.571h1.169l1.27 4.571h.096l1.1-4.571h1.219l-1.696 5.99zm3.127-5.992h1.173v.952h.091c.155-.342.416-.628.746-.82a1.9 1.9 0 0 1 1.097-.247 2.028 2.028 0 0 1 1.621.615 1.93 1.93 0 0 1 .517 1.613v3.878h-1.22v-3.581c0-.963-.43-1.442-1.332-1.442a1.5 1.5 0 0 0-.597.099 1.4 1.4 0 0 0-.5.332 1.35 1.35 0 0 0-.31.503 1.3 1.3 0 0 0-.067.585v3.504h-1.219v-5.99zm7.186-2.338h1.219v8.33h-1.219zm2.913 5.331a2.8 2.8 0 0 1 .135-1.166 2.8 2.8 0 0 1 .612-1.013c.274-.293.608-.527.98-.687a3 3 0 0 1 2.368 0c.373.16.707.394.981.687s.482.638.611 1.013.175.773.136 1.166a2.8 2.8 0 0 1-.134 1.168 2.8 2.8 0 0 1-.611 1.015 2.9 2.9 0 0 1-.982.688 3 3 0 0 1-2.37 0 2.9 2.9 0 0 1-.982-.688 2.8 2.8 0 0 1-.61-1.015 2.8 2.8 0 0 1-.135-1.168zm4.57 0c0-1.298-.602-2.058-1.657-2.058-1.06 0-1.655.76-1.655 2.058 0 1.31.596 2.063 1.655 2.063 1.055 0 1.656-.759 1.656-2.063zm2.537 1.304c0-1.078.827-1.7 2.296-1.788l1.672-.094v-.517c0-.633-.431-.99-1.264-.99-.68 0-1.151.242-1.286.666h-1.18c.124-1.03 1.122-1.69 2.523-1.69 1.548 0 2.421.748 2.421 2.014v4.093h-1.173v-.842h-.097c-.195.302-.47.549-.796.714a2.13 2.13 0 0 1-1.058.227c-.26.026-.522 0-.77-.079a1.9 1.9 0 0 1-.67-.374 1.8 1.8 0 0 1-.455-.607 1.8 1.8 0 0 1-.163-.733m3.968-.512v-.5l-1.507.093c-.85.055-1.236.336-1.236.864 0 .539.482.853 1.145.853a1.5 1.5 0 0 0 1.085-.326 1.38 1.38 0 0 0 .513-.984m2.817-.791c0-1.893 1.003-3.093 2.563-3.093a2.1 2.1 0 0 1 1.104.259c.335.186.609.46.789.792h.091v-3.29h1.219v8.33h-1.168v-.947h-.096c-.195.33-.478.6-.82.785a2.2 2.2 0 0 1-1.119.26c-1.571 0-2.563-1.199-2.563-3.096m1.258 0c0 1.27.618 2.035 1.65 2.035 1.027 0 1.662-.776 1.662-2.03 0-1.249-.641-2.036-1.662-2.036-1.026 0-1.65.77-1.65 2.03zm9.548 0a2.8 2.8 0 0 1 .748-2.18c.274-.292.608-.526.981-.686a3 3 0 0 1 2.367 0c.372.16.707.394.981.687.274.292.482.638.611 1.013.128.375.175.772.136 1.166.04.394-.006.792-.135 1.168a2.8 2.8 0 0 1-.61 1.015 2.9 2.9 0 0 1-.982.688 3 3 0 0 1-2.37 0 2.9 2.9 0 0 1-.981-.688 2.77 2.77 0 0 1-.746-2.183m4.571 0c0-1.298-.602-2.058-1.657-2.058-1.059 0-1.655.76-1.655 2.058 0 1.31.596 2.063 1.655 2.063 1.055 0 1.657-.76 1.657-2.063m2.888-2.994h1.173v.952h.091c.155-.342.415-.628.746-.82a1.9 1.9 0 0 1 1.097-.247 2.028 2.028 0 0 1 1.621.615c.205.214.358.47.447.75.09.279.113.574.069.863v3.878h-1.218v-3.581c0-.963-.432-1.442-1.333-1.442a1.5 1.5 0 0 0-.597.099c-.189.074-.36.187-.5.332-.14.144-.246.316-.311.503a1.3 1.3 0 0 0-.066.585v3.504h-1.219v-5.99zm12.13-1.491v1.518h1.338v.996h-1.338v3.081c0 .627.267.902.873.902q.233 0 .465-.027v.985a4 4 0 0 1-.663.06c-1.355 0-1.895-.462-1.895-1.617v-3.384h-.98v-.996h.98V9.18zm3.001-.847h1.208v3.301h.096c.162-.345.43-.633.767-.825a1.95 1.95 0 0 1 1.116-.248 2.1 2.1 0 0 1 .875.142c.277.11.527.276.73.49s.355.467.445.744.116.57.076.858v3.868h-1.219v-3.577c0-.957-.46-1.441-1.321-1.441a1.5 1.5 0 0 0-.617.082c-.197.07-.376.182-.524.326a1.4 1.4 0 0 0-.333.511 1.35 1.35 0 0 0-.08.6v3.499h-1.219zm12.419 6.712a2.44 2.44 0 0 1-1.013 1.338 2.57 2.57 0 0 1-1.662.395 2.9 2.9 0 0 1-1.185-.222 2.8 2.8 0 0 1-.979-.684 2.7 2.7 0 0 1-.592-1.02 2.6 2.6 0 0 1-.096-1.166 2.7 2.7 0 0 1 .687-2.195 2.85 2.85 0 0 1 .975-.696 2.9 2.9 0 0 1 1.185-.24c1.718 0 2.754 1.14 2.754 3.02v.413h-4.36v.067a1.57 1.57 0 0 0 .431 1.211 1.64 1.64 0 0 0 1.213.505c.292.034.587-.017.849-.146.261-.13.477-.332.62-.58zm-4.286-1.931h3.119a1.41 1.41 0 0 0-.406-1.103 1.5 1.5 0 0 0-.508-.339 1.5 1.5 0 0 0-.606-.11 1.62 1.62 0 0 0-1.137.449 1.5 1.5 0 0 0-.462 1.103"></path>
</svg>
