<svg xmlns="http://www.w3.org/2000/svg" width="171" height="50" fill="none">
  <rect width="170" height="50" x="0.316" fill="#000" rx="10"></rect>
  <path fill="#EA4335" d="M26.561 24.252 12.857 38.897q.002.004.003.009a3.704 3.704 0 0 0 3.574 2.76 3.67 3.67 0 0 0 1.878-.513l.044-.026 15.424-8.962z"></path>
  <path fill="#FBBC04" d="m40.423 21.759-.013-.01-6.66-3.886-7.502 6.722 7.53 7.58 6.623-3.849a3.74 3.74 0 0 0 1.95-3.285 3.73 3.73 0 0 0-1.928-3.272"></path>
  <path fill="#4285F4" d="M12.857 11.101a3.7 3.7 0 0 0-.127.96v25.878q.001.498.128.958l14.173-14.27L12.857 11.1z"></path>
  <path fill="#34A853" d="m26.66 25 7.093-7.14-15.407-8.994a3.7 3.7 0 0 0-1.912-.533 3.71 3.71 0 0 0-3.577 2.765l-.002.004L26.661 25z"></path>
  <path fill="#fff" d="M62.522 12.471q0 1.54-.906 2.454-1.031 1.088-2.681 1.088-1.582 0-2.687-1.104-1.106-1.103-1.105-2.736-.001-1.632 1.105-2.736 1.104-1.103 2.687-1.104a3.7 3.7 0 0 1 1.497.309q.714.309 1.143.82l-.643.647q-.724-.871-1.997-.872-1.154 0-1.994.816t-.841 2.12q0 1.305.84 2.12a2.77 2.77 0 0 0 1.995.816q1.222 0 2.039-.821.53-.534.61-1.489h-2.65v-.883h3.537a3 3 0 0 1 .051.555"></path>
  <path fill="#fff" d="M62.522 12.471q0 1.54-.906 2.454-1.031 1.088-2.681 1.088-1.582 0-2.687-1.104-1.106-1.103-1.105-2.736-.001-1.632 1.105-2.736 1.104-1.103 2.687-1.104a3.7 3.7 0 0 1 1.497.309q.714.309 1.143.82l-.643.647q-.724-.871-1.997-.872-1.154 0-1.994.816t-.841 2.12q0 1.305.84 2.12a2.77 2.77 0 0 0 1.995.816q1.222 0 2.039-.821.53-.534.61-1.489h-2.65v-.883h3.537a3 3 0 0 1 .051.555m5.608-3.07h-3.323v2.33h2.998v.884h-2.998v2.33h3.324v.904h-4.262v-7.35h4.262V9.4z"></path>
  <path fill="#fff" d="M68.13 9.401h-3.323v2.33h2.998v.884h-2.998v2.33h3.324v.904h-4.262v-7.35h4.262V9.4zm3.954 6.448h-.938V9.4h-2.039v-.9h5.016v.9h-2.039z"></path>
  <path fill="#fff" d="M72.084 15.849h-.938V9.4h-2.039v-.9h5.016v.9h-2.039zm5.67-7.35h.938v7.35h-.938zm5.098 7.35h-.938V9.4h-2.039v-.9h5.016v.9h-2.039z"></path>
  <path fill="#fff" d="M82.852 15.849h-.938V9.4h-2.039v-.9h5.016v.9h-2.039zm6.875-1.566q.81.826 1.983.826a2.67 2.67 0 0 0 1.983-.826q.81-.826.811-2.11 0-1.283-.811-2.109a2.67 2.67 0 0 0-1.983-.827q-1.174 0-1.983.827-.81.826-.81 2.11c0 1.284.27 1.558.81 2.109m4.66.615q-1.077 1.116-2.677 1.115c-1.6-.001-1.959-.372-2.676-1.115q-1.075-1.113-1.075-2.724 0-1.613 1.075-2.726c1.075-1.113 1.609-1.115 2.676-1.115q1.59 0 2.671 1.12 1.08 1.118 1.08 2.72 0 1.612-1.075 2.725z"></path>
  <path fill="#fff" d="M89.727 14.283q.81.826 1.983.826a2.67 2.67 0 0 0 1.983-.826q.81-.826.811-2.11 0-1.283-.811-2.109a2.67 2.67 0 0 0-1.983-.827q-1.174 0-1.983.827-.81.826-.81 2.11c0 1.284.27 1.558.81 2.109m4.66.615q-1.077 1.116-2.677 1.115c-1.6-.001-1.959-.372-2.676-1.115q-1.075-1.113-1.075-2.724 0-1.613 1.075-2.726c1.075-1.113 1.609-1.115 2.676-1.115q1.59 0 2.671 1.12 1.08 1.118 1.08 2.72 0 1.612-1.075 2.725zm2.39.951v-7.35h1.141l3.548 5.717h.041l-.041-1.416V8.499h.939v7.35h-.979l-3.712-5.996h-.04l.04 1.418v4.578z"></path>
  <path fill="#fff" d="M96.777 15.849v-7.35h1.141l3.548 5.717h.041l-.041-1.416V8.499h.939v7.35h-.979l-3.712-5.996h-.04l.04 1.418v4.578zm38.154 20.824h2.27V21.359h-2.27zm20.447-9.798-2.602 6.64h-.078l-2.701-6.64h-2.445l4.05 9.28-2.308 5.162h2.366l6.242-14.442zm-12.874 8.058c-.744 0-1.781-.373-1.781-1.3 0-1.181 1.291-1.635 2.406-1.635.998 0 1.469.217 2.075.512-.177 1.419-1.39 2.423-2.7 2.423m.274-8.392c-1.644 0-3.347.729-4.05 2.345l2.014.846c.431-.846 1.233-1.123 2.075-1.123 1.174 0 2.367.709 2.387 1.97v.157c-.412-.236-1.291-.59-2.368-.59-2.171 0-4.383 1.202-4.383 3.447 0 2.05 1.781 3.37 3.776 3.37 1.527 0 2.369-.69 2.897-1.498h.078v1.182h2.191v-5.871c0-2.718-2.015-4.235-4.617-4.235m-14.03 2.199h-3.229v-5.25h3.229c1.697 0 2.661 1.416 2.661 2.625 0 1.187-.964 2.625-2.661 2.625m-.058-7.38h-5.439v15.313h2.268V30.87h3.171c2.516 0 4.989-1.835 4.989-4.756s-2.473-4.756-4.989-4.756zM99.028 34.935c-1.568 0-2.88-1.322-2.88-3.137 0-1.835 1.312-3.178 2.88-3.178 1.549 0 2.763 1.343 2.763 3.178 0 1.815-1.214 3.137-2.763 3.137m2.608-7.203h-.08c-.509-.611-1.489-1.164-2.723-1.164-2.588 0-4.96 2.288-4.96 5.23 0 2.92 2.372 5.19 4.96 5.19 1.234 0 2.214-.552 2.723-1.185h.08v.751c0 1.993-1.059 3.06-2.764 3.06-1.392 0-2.255-1.008-2.608-1.857l-1.979.83c.568 1.381 2.078 3.078 4.587 3.078 2.665 0 4.919-1.579 4.919-5.427v-9.355h-2.155zm3.723 8.94h2.274V21.358h-2.274v15.315zm5.625-5.052c-.059-2.013 1.548-3.04 2.704-3.04.903 0 1.667.454 1.921 1.106zm7.056-1.737c-.431-1.164-1.745-3.315-4.43-3.315-2.665 0-4.879 2.11-4.879 5.21 0 2.92 2.194 5.21 5.134 5.21 2.372 0 3.744-1.46 4.312-2.31l-1.764-1.184c-.587.869-1.391 1.44-2.548 1.44-1.156 0-1.98-.532-2.509-1.577l6.919-2.882zm-55.12-1.716v2.21h5.251c-.157 1.243-.568 2.15-1.195 2.782-.765.77-1.96 1.619-4.057 1.619-3.235 0-5.763-2.625-5.763-5.881 0-3.258 2.528-5.881 5.763-5.881 1.745 0 3.019.69 3.959 1.579l1.549-1.56c-1.314-1.263-3.058-2.23-5.508-2.23-4.43 0-8.153 3.632-8.153 8.092s3.724 8.091 8.153 8.091c2.39 0 4.194-.79 5.605-2.27 1.451-1.46 1.901-3.512 1.901-5.17 0-.514-.038-.987-.118-1.381zm13.478 6.768c-1.569 0-2.921-1.302-2.921-3.157 0-1.875 1.352-3.158 2.92-3.158s2.92 1.283 2.92 3.158c0 1.855-1.352 3.157-2.92 3.157zm0-8.367c-2.863 0-5.195 2.19-5.195 5.21 0 3 2.332 5.21 5.195 5.21 2.861 0 5.193-2.21 5.193-5.21 0-3.02-2.332-5.21-5.193-5.21m11.33 8.367c-1.569 0-2.921-1.302-2.921-3.157 0-1.875 1.352-3.158 2.92-3.158 1.569 0 2.92 1.283 2.92 3.158 0 1.855-1.351 3.157-2.92 3.157zm0-8.367c-2.862 0-5.194 2.19-5.194 5.21 0 3 2.332 5.21 5.194 5.21s5.193-2.21 5.193-5.21c0-3.02-2.332-5.21-5.193-5.21"></path>
</svg>
