<svg xmlns="http://www.w3.org/2000/svg" width="120" height="120">
  <path fill="#006fcf" d="M119.865 64.926V.054H0V119.92h119.865V84.948c-.267 0 0-20.022 0-20.022" />
  <path fill="#fff" d="M105.182 58.252h9.077v-21.09h-9.878v2.936l-1.868-2.936H93.97v3.737l-1.602-3.737h-15.75c-.534 0-1.068.267-1.602.267s-.801.267-1.335.534-.8.267-1.335.534v-1.335H27.23l-1.335 3.47-1.335-3.47H13.882v3.737l-1.602-3.737H3.737L0 46.238v12.014h6.14l1.068-2.937h2.136l1.067 2.937h46.985v-2.67l1.87 2.67h13.08V56.65c.267.267.801.267 1.068.534s.8.267 1.068.534c.534.267 1.068.267 1.602.267h9.61l1.068-2.937h2.136l1.068 2.937h13.08v-2.67zm14.683 26.696V65.193H46.451l-1.869 2.67-1.868-2.67H21.357v21.09h21.357l1.868-2.67 1.869 2.67h13.348v-4.539h-.534c1.869 0 3.47-.267 4.805-.8v5.605h9.611v-2.67l1.869 2.67h39.777c1.601-.533 3.203-.8 4.538-1.601z" />
  <path fill="#006fcf" d="M115.327 79.875h-7.208v2.937h6.94c2.937 0 4.806-1.869 4.806-4.538s-1.602-4.005-4.271-4.005h-3.204c-.8 0-1.335-.534-1.335-1.335s.534-1.334 1.335-1.334h6.14l1.335-2.937h-7.208c-2.936 0-4.805 1.869-4.805 4.271 0 2.67 1.602 4.005 4.271 4.005h3.204c.8 0 1.335.534 1.335 1.335.266 1.068-.267 1.601-1.335 1.601zm-13.081 0h-7.208v2.937h6.94c2.937 0 4.806-1.869 4.806-4.538s-1.602-4.005-4.271-4.005h-3.204c-.8 0-1.335-.534-1.335-1.335s.534-1.334 1.335-1.334h6.14l1.335-2.937h-7.208c-2.936 0-4.805 1.869-4.805 4.271 0 2.67 1.602 4.005 4.271 4.005h3.204c.8 0 1.334.534 1.334 1.335.267 1.068-.533 1.601-1.334 1.601zm-9.344-8.542v-2.937H81.69v14.149h11.212v-2.937h-8.009v-2.936h7.742v-2.937h-7.742v-2.67h8.01zm-18.153 0c1.335 0 1.869.8 1.869 1.601s-.534 1.602-1.87 1.602h-4.004v-3.47zm-4.005 6.14h1.602l4.272 5.072h4.004l-4.805-5.34c2.402-.533 3.737-2.135 3.737-4.27 0-2.67-1.869-4.539-4.805-4.539h-7.475v14.149h3.203zM62.202 73.2c0 1.068-.534 1.87-1.869 1.87h-4.271v-3.738h4.004c1.335 0 2.136.8 2.136 1.868zm-9.344-4.805v14.149h3.204V77.74h4.271c2.937 0 5.072-1.869 5.072-4.806 0-2.67-1.869-4.805-4.805-4.805zm-4.805 14.149h4.004l-5.606-7.208 5.606-6.94h-4.004l-3.47 4.537-3.471-4.538h-4.005l5.607 6.941-5.607 6.941h4.005l3.47-4.538zM36.04 71.333v-2.937H24.827v14.149H36.04v-2.937h-8.01v-2.936h7.743v-2.937H28.03v-2.67h8.009zm64.87-25.095 5.607 8.543h4.004V40.632h-3.203v9.344l-.801-1.335-5.072-8.009h-4.272v14.15h3.204V45.17zm-13.881-.266 1.068-2.937 1.068 2.937 1.334 3.203h-4.805zm5.606 8.81h3.47l-6.14-14.15h-4.27l-6.14 14.15h3.47l1.334-2.937H91.3zm-14.95 0 1.335-2.937h-.8c-2.403 0-3.738-1.602-3.738-4.005v-.267c0-2.402 1.335-4.004 3.737-4.004h3.47v-2.937h-3.737c-4.271 0-6.674 2.937-6.674 6.941v.267c0 4.272 2.403 6.941 6.407 6.941zm-12.013 0h3.204V40.898h-3.204Zm-6.94-11.213c1.334 0 1.868.8 1.868 1.602s-.534 1.601-1.869 1.601h-4.004v-3.47zm-4.005 6.14h1.602l4.27 5.072h4.005L59.8 49.442c2.403-.534 3.737-2.136 3.737-4.271 0-2.67-1.868-4.539-4.805-4.539h-7.475v14.15h3.204zm-5.873-6.14v-2.937H37.64v14.15h11.213v-2.937h-8.01v-2.937h7.743v-2.936h-7.742v-2.67h8.009zM24.56 54.78h2.937l4.004-11.48v11.48h3.204V40.632h-5.34l-3.203 9.61-3.203-9.61h-5.34v14.15h3.204v-11.48zM7.208 45.97l1.068-2.936 1.068 2.937 1.334 3.203H5.873Zm5.606 8.81h3.47l-6.14-14.149H6.14L0 54.782h3.47l1.335-2.937h6.941z" />
</svg>
