<svg xmlns="http://www.w3.org/2000/svg" width="146.8" height="109.41">
  <path fill="#fff" d="M0 0h146.8v109.4H0Z" />
  <path fill="#231f20" d="M26.826 108.948v-7.242a4.475 4.297 0 0 0-4.727-4.587 4.651 4.466 0 0 0-4.223 2.052 4.412 4.237 0 0 0-3.973-2.052 3.972 3.814 0 0 0-3.52 1.714V97.41H7.77v11.54h2.64v-6.35a2.816 2.704 0 0 1 2.941-3.066c1.735 0 2.615 1.087 2.615 3.042v6.422h2.64V102.6a2.828 2.716 0 0 1 2.941-3.066c1.785 0 2.64 1.087 2.64 3.042v6.422zm39.056-11.54h-4.299v-3.5h-2.64v3.5h-2.388v2.294h2.439v5.311c0 2.68 1.08 4.273 4.173 4.273a6.134 5.89 0 0 0 3.268-.893l-.754-2.149a4.827 4.635 0 0 1-2.313.652c-1.257 0-1.735-.772-1.735-1.931v-5.263h4.274zm22.3-.289a3.545 3.404 0 0 0-3.168 1.69v-1.4h-2.59v11.54h2.616v-6.47c0-1.908.854-2.97 2.514-2.97a4.261 4.092 0 0 1 1.634.29l.804-2.414a5.594 5.371 0 0 0-1.86-.314zm-33.714 1.207a8.988 8.63 0 0 0-4.902-1.207c-3.042 0-5.028 1.4-5.028 3.694 0 1.883 1.458 3.041 4.148 3.404l1.257.169c1.433.193 2.112.555 2.112 1.207 0 .893-.956 1.4-2.74 1.4a6.398 6.144 0 0 1-3.998-1.207l-1.257 1.955a8.674 8.329 0 0 0 5.204 1.497c3.47 0 5.48-1.57 5.48-3.766 0-2.197-1.583-3.09-4.198-3.452l-1.257-.17c-1.131-.144-2.036-.361-2.036-1.134 0-.772.855-1.352 2.288-1.352a7.743 7.435 0 0 1 3.77.99zm70.03-1.207a3.545 3.404 0 0 0-3.168 1.69v-1.4h-2.59v11.54h2.616v-6.47c0-1.908.854-2.97 2.514-2.97a4.261 4.092 0 0 1 1.634.29l.804-2.414a5.594 5.371 0 0 0-1.86-.314zm-33.689 6.035a6.072 5.83 0 0 0 6.411 6.036 6.285 6.035 0 0 0 4.325-1.376l-1.258-2.028a5.28 5.07 0 0 1-3.142 1.038 3.86 3.706 0 0 1 0-7.387 5.28 5.07 0 0 1 3.142 1.038l1.258-2.028a6.285 6.035 0 0 0-4.325-1.376 6.072 5.83 0 0 0-6.41 6.035zm24.488 0V97.41h-2.615v1.4a4.563 4.382 0 0 0-3.771-1.69 6.285 6.035 0 0 0 0 12.07 4.563 4.382 0 0 0 3.77-1.69v1.401h2.616zm-9.73 0a3.633 3.488 0 1 1 3.646 3.694 3.608 3.464 0 0 1-3.646-3.694zM74.015 97.12a6.286 6.036 0 0 0 .176 12.07 7.303 7.013 0 0 0 4.99-1.569l-1.256-1.858a5.72 5.492 0 0 1-3.495 1.207 3.331 3.199 0 0 1-3.595-2.825h8.925v-.965c0-3.622-2.338-6.036-5.707-6.036zm0 2.245a2.98 2.86 0 0 1 3.042 2.8h-6.285a3.092 2.97 0 0 1 3.193-2.8zm65.505 3.815V92.774h-2.514v6.035a4.563 4.382 0 0 0-3.771-1.69 6.285 6.035 0 0 0 0 12.07 4.563 4.382 0 0 0 3.77-1.69v1.401h2.515zm4.362 4.091a1.257 1.207 0 0 1 .477.085 1.257 1.207 0 0 1 .39.241 1.257 1.207 0 0 1 .264.362 1.17 1.123 0 0 1 0 .894 1.257 1.207 0 0 1-.264.362 1.257 1.207 0 0 1-.39.241 1.182 1.135 0 0 1-.477.097 1.257 1.207 0 0 1-1.132-.7 1.182 1.135 0 0 1 0-.894 1.257 1.207 0 0 1 .264-.362 1.257 1.207 0 0 1 .39-.241 1.257 1.207 0 0 1 .515-.085zm0 2.04a.893.857 0 0 0 .364-.072.943.905 0 0 0 .29-.193.93.893 0 0 0 0-1.207.93.893 0 0 0-.29-.193.905.87 0 0 0-.364-.073.943.905 0 0 0-.365.073.918.881 0 0 0-.301.193.93.893 0 0 0 0 1.207.93.893 0 0 0 .301.193.93.893 0 0 0 .402.072zm.075-1.436a.503.483 0 0 1 .327.097.314.302 0 0 1 .113.253.302.29 0 0 1-.088.217.44.422 0 0 1-.264.109l.365.398h-.29l-.339-.398h-.113v.398h-.239v-1.062zm-.276.205v.29h.276a.264.253 0 0 0 .151 0 .126.12 0 0 0 0-.109.126.12 0 0 0 0-.108.264.253 0 0 0-.15 0zm-13.828-4.9a3.633 3.488 0 1 1 3.646 3.693 3.608 3.464 0 0 1-3.646-3.693zm-88.282 0v-5.77h-2.615v1.4a4.563 4.382 0 0 0-3.77-1.69 6.285 6.035 0 0 0 0 12.07 4.563 4.382 0 0 0 3.77-1.69v1.401h2.615zm-9.73 0a3.633 3.488 0 1 1 3.646 3.693 3.608 3.464 0 0 1-3.67-3.693z" />
  <path fill="#ff5f00" d="M53.6 9.475h39.597v68.331H53.6z" />
  <path fill="#eb001b" d="M56.114 43.647A45.178 43.381 0 0 1 73.4 9.475a45.253 43.454 0 1 0 0 68.331 45.178 43.381 0 0 1-17.285-34.16Z" />
  <path fill="#f79e1b" d="M146.621 43.647A45.253 43.454 0 0 1 73.4 77.807a45.253 43.454 0 0 0 0-68.332 45.253 43.454 0 0 1 73.222 34.16zm-4.324 26.917v-1.4h.59v-.29h-1.495v.29h.641v1.4zm2.904 0v-1.69h-.453l-.528 1.207-.528-1.207h-.402v1.69h.327v-1.268l.49 1.099h.34l.49-1.099v1.28z" />
</svg>
