<svg xmlns="http://www.w3.org/2000/svg" width="150" height="100"><path fill="#253b80" d="M28.4 61h-9.6c-.6 0-1.2.4-1.3 1l-3.8 24.5c-.1.5.2 1 .7 1H19c.6 0 1.2-.6 1.3-1.2l1-6.6c.1-.6.7-1.1 1.4-1.1h3c6.3 0 9.9-3 10.8-9 .5-2.7 0-4.8-1.2-6.3-1.3-1.5-3.7-2.4-7-2.4zm1 8.8c-.5 3.5-3 3.5-5.6 3.5h-1.4l1-6.4c0-.4.4-.7.8-.7h.6c1.7 0 3.4 0 4.2 1 .5.6.7 1.4.5 2.6zm27.5-.1h-4.6c-.4 0-.7.3-.8.7l-.2 1.3-.3-.5c-1-1.4-3.2-1.9-5.4-1.9-5 0-9.3 3.8-10.2 9.2-.4 2.7.2 5.2 1.7 7 1.4 1.7 3.4 2.3 5.8 2.3 4 0 6.3-2.6 6.3-2.6l-.2 1.3c0 .5.3 1 .8 1h4.1c.7 0 1.2-.6 1.3-1.2l2.5-15.6c0-.5-.3-1-.8-1zm-6.4 9a5 5 0 0 1-5.1 4.3c-1.4 0-2.4-.4-3.1-1.2-.7-.8-1-2-.7-3.2a5.1 5.1 0 0 1 5.1-4.4c1.3 0 2.4.4 3 1.2.8.8 1 2 .8 3.2zm30.7-9h-4.6c-.4 0-.8.3-1 .6l-6.4 9.4-2.7-9c-.1-.6-.7-1-1.2-1h-4.6c-.5 0-.9.6-.7 1l5 15-4.7 6.7c-.4.5 0 1.2.6 1.2h4.6c.5 0 .9-.2 1.1-.6L82 71a.8.8 0 0 0-.7-1.3z"/><path fill="#179bd7" d="M96.5 61h-9.6c-.6 0-1.2.4-1.3 1l-3.9 24.5c0 .5.3 1 .8 1h5a1 1 0 0 0 .8-.9l1.1-6.9c.1-.6.7-1.1 1.3-1.1h3c6.3 0 10-3 11-9 .4-2.7 0-4.8-1.3-6.3s-3.8-2.4-7-2.4zm1 8.8c-.5 3.5-3 3.5-5.6 3.5h-1.5l1-6.4c.1-.4.4-.7.8-.7h.7c1.7 0 3.3 0 4.2 1 .5.6.6 1.4.5 2.6zm27.5-.1h-4.6c-.4 0-.7.3-.8.7l-.2 1.3-.3-.5c-1-1.4-3.2-1.9-5.4-1.9-5 0-9.4 3.8-10.2 9.2-.4 2.7.2 5.2 1.7 7 1.4 1.7 3.4 2.3 5.8 2.3 4 0 6.3-2.6 6.3-2.6l-.2 1.3c0 .5.3 1 .8 1h4c.7 0 1.3-.6 1.4-1.2l2.5-15.6c0-.5-.3-1-.8-1zm-6.4 9a5 5 0 0 1-5.1 4.3c-1.4 0-2.4-.4-3.1-1.2-.7-.8-1-2-.7-3.2a5.1 5.1 0 0 1 5-4.4c1.4 0 2.4.4 3.1 1.2.7.8 1 2 .8 3.2zm11.8-17.1-4 24.9c0 .5.3 1 .8 1h4c.6 0 1.2-.6 1.3-1.2l3.8-24.5c.1-.5-.2-.9-.7-.9h-4.4c-.4 0-.8.3-.8.7z"/><path fill="#253b80" d="m67.3 49 .7-4.6h-9.4L64 10.2l.2-.3.3-.1h13c4.4 0 7.4.9 9 2.7.7.8 1.2 1.7 1.4 2.7.2 1 .2 2.2 0 3.6V20l.7.4c.6.3 1.1.7 1.5 1.1.6.8 1 1.7 1.2 2.8.2 1 .1 2.4-.2 3.9-.3 1.7-.8 3.2-1.6 4.4a9.1 9.1 0 0 1-6 4.4c-1.2.3-2.6.5-4.2.5h-1a3 3 0 0 0-3 2.5l-.2.5-1.2 8.1-.1.3v.2h-.2z"/><path fill="#179bd7" d="m89.3 19-.1.8c-1.7 8.9-7.6 12-15.2 12h-3.8c-1 0-1.7.6-1.9 1.5l-2 12.5-.5 3.5a1 1 0 0 0 1 1.2h6.8c.8 0 1.5-.6 1.6-1.4v-.3l1.4-8.2v-.4c.2-.8.8-1.4 1.7-1.4h1c6.6 0 11.7-2.7 13.2-10.5.7-3.2.4-5.9-1.3-7.8-.5-.6-1.1-1-1.9-1.4z"/><path fill="#222d65" d="M87.5 18.3a13.6 13.6 0 0 0-1.7-.3c-1-.2-2.1-.3-3.4-.3H72.2a1.6 1.6 0 0 0-1.6 1.4L68.4 33v.4c0-.9.8-1.5 1.8-1.5H74c7.6 0 13.5-3.1 15.2-12l.1-.7a9.2 9.2 0 0 0-1.8-.8z"/><path fill="#253b80" d="M70.6 19.1a1.6 1.6 0 0 1 1.6-1.4h10.2a21.3 21.3 0 0 1 5.5.8c.5.1 1 .3 1.4.6.5-3.3 0-5.5-1.8-7.6-2-2.2-5.4-3.1-10-3.1h-13c-1 0-1.7.6-1.9 1.5l-5.4 34.6c-.1.7.4 1.3 1 1.3h8.2l2-12.9z"/></svg>