<svg xmlns="http://www.w3.org/2000/svg" viewBox="0 0 146.8 94.355">
  <path d="M-.125-.049h146.8v94.35H-.125z" fill="#fff" />
  <path d="M2.319 78.97h141.8v12.87H2.319z" fill="#f7b600" />
  <path d="M2.318 2.426h141.8v12.86H2.318z" fill="#1a1f71" />
  <path d="m72.02 29.44-7.48 35.39h-9.05l7.49-35.39zm38.08 22.85L114.8 39l2.8 13.29zm10.1 12.54h8.3l-7.3-35.39h-7.7c-1.7 0-3.2 1.02-3.8 2.59l-13.61 32.8h9.51l1.9-5.29h11.6zM96.56 53.28c.1-9.34-12.76-9.87-12.68-14.03.1-1.28 1.23-2.62 3.84-2.97 1.3-.17 4.87-.3 8.93 1.58l1.58-7.5c-2.18-.8-4.98-1.57-8.46-1.57-8.94 0-15.24 4.81-15.29 11.7 0 5.1 4.5 7.94 7.92 9.63 3.53 1.74 4.71 2.85 4.69 4.4 0 2.37-2.81 3.43-5.41 3.46-4.55.1-7.18-1.25-9.29-2.24l-1.64 7.76c2.12.99 6.02 1.84 10.06 1.88 9.5 0 15.72-4.75 15.75-12.1M59.1 29.44 44.44 64.83h-9.56l-7.22-28.24c-.43-1.74-.81-2.38-2.14-3.11-2.18-1.2-5.77-2.32-8.93-3.01l.22-1.03H32.2c1.96 0 3.72 1.32 4.17 3.61l3.82 20.47 9.4-24.08z" fill="#1a1f71" />
</svg>
